<?xml version="1.0" encoding="UTF-8" standalone="no"?>
<!-- Created with Inkscape (http://www.inkscape.org/) -->

<svg
   xmlns:dc="http://purl.org/dc/elements/1.1/"
   xmlns:cc="http://creativecommons.org/ns#"
   xmlns:rdf="http://www.w3.org/1999/02/22-rdf-syntax-ns#"
   xmlns:svg="http://www.w3.org/2000/svg"
   xmlns="http://www.w3.org/2000/svg"
   xmlns:sodipodi="http://sodipodi.sourceforge.net/DTD/sodipodi-0.dtd"
   xmlns:inkscape="http://www.inkscape.org/namespaces/inkscape"
   width="300"
   height="250"
   viewBox="0 0 79.374998 66.145835"
   version="1.1"
   id="svg8"
   inkscape:version="0.92.3 (2405546, 2018-03-11)"
   sodipodi:docname="gads-medium-rectangle.svg"
   inkscape:export-filename="/Users/xaralis/Desktop/gads-large-rectangle.png"
   inkscape:export-xdpi="107.16"
   inkscape:export-ydpi="107.16">
  <defs
     id="defs2">
    <clipPath
       id="clipPath26"
       clipPathUnits="userSpaceOnUse">
      <path
         inkscape:connector-curvature="0"
         id="path24"
         d="M 0,0 H 595.276 V 841.89 H 0 Z" />
    </clipPath>
    <clipPath
       id="clipPath48"
       clipPathUnits="userSpaceOnUse">
      <path
         inkscape:connector-curvature="0"
         id="path46"
         d="M 0,0 H 595.276 V 841.89 H 0 Z" />
    </clipPath>
    <clipPath
       id="clipPath68"
       clipPathUnits="userSpaceOnUse">
      <path
         inkscape:connector-curvature="0"
         id="path66"
         d="M 0,0 H 595.276 V 841.89 H 0 Z" />
    </clipPath>
    <clipPath
       id="clipPath88"
       clipPathUnits="userSpaceOnUse">
      <path
         inkscape:connector-curvature="0"
         id="path86"
         d="M 0,0 H 595.276 V 841.89 H 0 Z" />
    </clipPath>
    <clipPath
       id="clipPath104"
       clipPathUnits="userSpaceOnUse">
      <path
         inkscape:connector-curvature="0"
         id="path102"
         d="M 0,0 H 595.276 V 841.89 H 0 Z" />
    </clipPath>
  </defs>
  <sodipodi:namedview
     id="base"
     pagecolor="#ffffff"
     bordercolor="#666666"
     borderopacity="1.0"
     inkscape:pageopacity="0.0"
     inkscape:pageshadow="2"
     inkscape:zoom="0.98994949"
     inkscape:cx="10.401314"
     inkscape:cy="197.26246"
     inkscape:document-units="px"
     inkscape:current-layer="layer2"
     showgrid="false"
     units="px"
     showguides="false"
     inkscape:guide-bbox="true"
     inkscape:snap-bbox="true"
     inkscape:snap-nodes="false"
     inkscape:snap-global="true"
     inkscape:window-width="1680"
     inkscape:window-height="1028"
     inkscape:window-x="0"
     inkscape:window-y="0"
     inkscape:window-maximized="0">
    <inkscape:grid
       type="xygrid"
       id="grid1885" />
    <sodipodi:guide
       position="2.6458333,63.500002"
       orientation="1,0"
       id="guide1887"
       inkscape:locked="false"
       inkscape:label=""
       inkscape:color="rgb(0,0,255)" />
    <sodipodi:guide
       position="76.729167,26.458334"
       orientation="1,0"
       id="guide1889"
       inkscape:locked="false"
       inkscape:label=""
       inkscape:color="rgb(0,0,255)" />
    <sodipodi:guide
       position="5.2916667,63.5"
       orientation="0,1"
       id="guide1891"
       inkscape:locked="false"
       inkscape:label=""
       inkscape:color="rgb(0,0,255)" />
    <sodipodi:guide
       position="39.6875,2.6458333"
       orientation="0,1"
       id="guide1893"
       inkscape:locked="false"
       inkscape:label=""
       inkscape:color="rgb(0,0,255)" />
    <sodipodi:guide
       position="47.540567,48.175332"
       orientation="0,1"
       id="guide1895"
       inkscape:locked="false" />
  </sodipodi:namedview>
  <metadata
     id="metadata5">
    <rdf:RDF>
      <cc:Work
         rdf:about="">
        <dc:format>image/svg+xml</dc:format>
        <dc:type
           rdf:resource="http://purl.org/dc/dcmitype/StillImage" />
        <dc:title />
      </cc:Work>
    </rdf:RDF>
  </metadata>
  <g
     inkscape:groupmode="layer"
     id="layer2"
     inkscape:label="Layer 2">
    <rect
       style="fill:#ffffff;fill-opacity:1;stroke:#000000;stroke-width:0.26458333;stroke-linecap:square;stroke-linejoin:miter;stroke-miterlimit:4;stroke-dasharray:none;stroke-opacity:1"
       id="rect1917"
       width="79.375"
       height="66.145836"
       x="0"
       y="-1.2715658e-06" />
  </g>
  <g
     inkscape:label="Layer 1"
     inkscape:groupmode="layer"
     id="layer1"
     transform="translate(0,-230.85415)">
    <g
       transform="matrix(0.04761275,0,0,-0.04761275,0.16682664,299.98967)"
       id="g5462">
      <g
         id="g20"
         transform="matrix(3.0423019,0,0,3.0423019,-203.31309,20.013258)">
        <g
           id="g22"
           clip-path="url(#clipPath26)">
          <g
             id="g28"
             transform="translate(135.222,83.3927)">
            <path
               d="m 0,0 c -5.603,5.608 -13.06,8.701 -20.993,8.701 -7.923,0 -15.381,-3.093 -21.002,-8.701 -5.603,-5.608 -8.696,-13.065 -8.696,-20.997 0,-7.943 3.093,-15.4 8.696,-20.998 5.621,-5.608 13.079,-8.692 21.002,-8.692 7.933,0 15.39,3.084 20.993,8.692 5.622,5.598 8.706,13.055 8.706,20.998 C 8.706,-13.065 5.622,-5.608 0,0 m -20.993,-47.869 c -14.821,0 -26.871,12.051 -26.871,26.872 0,14.815 12.05,26.87 26.871,26.87 14.816,0 26.881,-12.055 26.881,-26.87 0,-14.821 -12.065,-26.872 -26.881,-26.872"
               style="fill:#12111a;fill-opacity:1;fill-rule:nonzero;stroke:none"
               id="path30"
               inkscape:connector-curvature="0" />
          </g>
          <g
             id="g32"
             transform="translate(105.2816,80.0626)">
            <path
               d="m 0,0 v 4.156 h -2.6 v -4.801 c -1.755,-0.541 -2.78,-1.101 -2.609,-1.447 0.579,0.161 1.508,0.232 2.609,0.166 v -24.998 c -2.647,-5.18 1.167,-13.108 1.167,-13.108 0,0 -2.87,8.512 3.511,12.535 5.864,3.691 26.088,1.959 26.012,13.369 C 28,2.04 9.346,1.945 0,0 M 8.345,-15.675 C 7.439,-19.983 2.742,-22.222 0,-24.086 v 21.761 c 4.673,-1.119 10.167,-4.711 8.345,-13.35"
               style="fill:#12111a;fill-opacity:1;fill-rule:nonzero;stroke:none"
               id="path34"
               inkscape:connector-curvature="0" />
          </g>
          <g
             id="g36"
             transform="translate(165.2014,73.2885)">
            <path
               d="m 0,0 v -7.075 h -6.051 v 22.498 c 2.151,0.31 4.427,0.465 6.827,0.465 7.033,0 10.551,-2.534 10.551,-7.603 0,-2.751 -0.792,-4.836 -2.375,-6.252 C 7.37,0.615 5.058,-0.093 2.017,-0.093 1.21,-0.093 0.538,-0.062 0,0 M 0,4.499 C 0.413,4.437 0.879,4.406 1.397,4.406 c 1.344,0 2.378,0.311 3.103,0.931 0.724,0.621 1.086,1.5 1.086,2.638 0,2.172 -1.397,3.258 -4.189,3.258 -0.456,0 -0.921,-0.052 -1.397,-0.155 z"
               style="fill:#12111a;fill-opacity:1;fill-rule:nonzero;stroke:none"
               id="path38"
               inkscape:connector-curvature="0" />
          </g>
        </g>
      </g>
      <path
         d="m 342.4211,290.37045 h 20.76979 V 221.45318 H 342.4211 Z"
         style="fill:#12111a;fill-opacity:1;fill-rule:nonzero;stroke:none;stroke-width:3.04230165"
         id="path40"
         inkscape:connector-curvature="0" />
      <g
         id="g42"
         transform="matrix(3.0423019,0,0,3.0423019,-203.31309,20.013258)">
        <g
           id="g44"
           clip-path="url(#clipPath48)">
          <g
             id="g50"
             transform="translate(196.6664,74.1261)">
            <path
               d="m 0,0 v -7.913 h -6.051 v 22.498 c 2.689,0.31 5.378,0.465 8.068,0.465 6.206,0 9.31,-2.327 9.31,-6.982 0,-1.303 -0.404,-2.513 -1.211,-3.63 C 9.309,3.321 8.265,2.524 6.982,2.048 V 1.986 C 7.602,1.634 8.119,1.184 8.533,0.636 8.947,0.088 9.34,-0.693 9.713,-1.707 l 2.234,-6.206 H 5.585 L 3.662,-2.017 C 3.434,-1.293 3.145,-0.776 2.793,-0.466 2.441,-0.155 1.976,0 1.396,0 Z m 0,4.5 h 1.707 c 1.055,0 1.887,0.264 2.498,0.791 0.61,0.528 0.915,1.246 0.915,2.157 0,1.965 -1.137,2.948 -3.413,2.948 C 1.045,10.396 0.475,10.344 0,10.24 Z"
               style="fill:#12111a;fill-opacity:1;fill-rule:nonzero;stroke:none"
               id="path52"
               inkscape:connector-curvature="0" />
          </g>
        </g>
      </g>
      <g
         id="g54"
         transform="matrix(3.0423019,0,0,3.0423019,458.06963,234.67016)">
        <path
           d="m 0,0 -1.024,-4.344 h -6.454 l 7.447,22.653 H 6.485 L 13.933,-4.344 H 7.354 L 6.299,0 Z m 4.468,20.171 h -4.965 l 3.103,5.585 H 9.433 Z M 1.117,4.655 H 5.213 L 3.196,13.034 H 3.134 Z"
           style="fill:#12111a;fill-opacity:1;fill-rule:nonzero;stroke:none"
           id="path56"
           inkscape:connector-curvature="0" />
      </g>
      <g
         id="g58"
         transform="matrix(3.0423019,0,0,3.0423019,555.77893,290.37136)">
        <path
           d="m 0,0 v -5.12 h -6.144 v -17.533 h -6.331 V -5.12 h -6.144 V 0 Z"
           style="fill:#12111a;fill-opacity:1;fill-rule:nonzero;stroke:none"
           id="path60"
           inkscape:connector-curvature="0" />
      </g>
      <g
         id="g62"
         transform="matrix(3.0423019,0,0,3.0423019,-203.31309,20.013258)">
        <g
           id="g64"
           clip-path="url(#clipPath68)">
          <g
             id="g70"
             transform="translate(267.1081,82.815)">
            <path
               d="m 0,0 c -2.09,1.034 -4.211,1.552 -6.361,1.552 -0.973,0 -1.707,-0.171 -2.204,-0.512 -0.496,-0.342 -0.744,-0.792 -0.744,-1.35 0,-0.869 0.671,-1.49 2.017,-1.862 3.247,-0.869 5.533,-1.909 6.857,-3.119 1.324,-1.21 1.986,-2.757 1.986,-4.639 0,-2.276 -0.786,-4.008 -2.358,-5.198 -1.573,-1.19 -3.941,-1.784 -7.106,-1.784 -1.324,0 -2.747,0.222 -4.267,0.667 -1.52,0.445 -2.736,0.998 -3.647,1.66 l 1.397,4.81 c 1.055,-0.724 2.198,-1.293 3.429,-1.707 1.231,-0.414 2.363,-0.62 3.398,-0.62 1.862,0 2.793,0.672 2.793,2.017 0,0.869 -0.828,1.541 -2.482,2.017 -3.022,0.869 -5.173,1.913 -6.455,3.134 -1.283,1.221 -1.924,2.762 -1.924,4.624 0,2.048 0.786,3.672 2.358,4.872 1.572,1.199 3.786,1.799 6.641,1.799 3.062,0 5.648,-0.517 7.758,-1.551 z"
               style="fill:#12111a;fill-opacity:1;fill-rule:nonzero;stroke:none"
               id="path72"
               inkscape:connector-curvature="0" />
          </g>
        </g>
      </g>
      <g
         id="g74"
         transform="matrix(3.0423019,0,0,3.0423019,643.01207,261.10443)">
        <path
           d="m 0,0 h 0.062 l 5.834,9.62 h 7.138 L 5.896,-1.241 13.344,-13.033 H 6.206 L 0.062,-2.483 H 0 v -10.55 H -6.206 V 9.62 H 0 Z"
           style="fill:#12111a;fill-opacity:1;fill-rule:nonzero;stroke:none"
           id="path76"
           inkscape:connector-curvature="0" />
      </g>
      <g
         id="g78"
         transform="matrix(3.0423019,0,0,3.0423019,709.38262,234.67016)">
        <path
           d="m 0,0 -1.024,-4.344 h -6.454 l 7.447,22.653 H 6.485 L 13.933,-4.344 H 7.354 L 6.299,0 Z m 4.468,20.171 h -4.965 l 3.103,5.585 H 9.434 Z M 1.117,4.655 H 5.213 L 3.196,13.034 H 3.134 Z"
           style="fill:#12111a;fill-opacity:1;fill-rule:nonzero;stroke:none"
           id="path80"
           inkscape:connector-curvature="0" />
      </g>
      <g
         id="g82"
         transform="matrix(3.0423019,0,0,3.0423019,-203.31309,20.013258)">
        <g
           id="g84"
           clip-path="url(#clipPath88)">
          <g
             id="g90"
             transform="translate(174.2009,52.1851)">
            <path
               d="m 0,0 c -2.09,1.034 -4.21,1.552 -6.362,1.552 -0.973,0 -1.706,-0.171 -2.203,-0.512 -0.496,-0.342 -0.744,-0.792 -0.744,-1.35 0,-0.869 0.671,-1.49 2.016,-1.862 3.248,-0.869 5.534,-1.909 6.859,-3.119 1.323,-1.21 1.985,-2.757 1.985,-4.639 0,-2.276 -0.786,-4.009 -2.358,-5.198 -1.573,-1.19 -3.941,-1.784 -7.106,-1.784 -1.325,0 -2.747,0.222 -4.267,0.667 -1.521,0.445 -2.736,0.998 -3.646,1.66 l 1.396,4.81 c 1.055,-0.725 2.198,-1.293 3.429,-1.707 1.231,-0.414 2.363,-0.621 3.398,-0.621 1.862,0 2.793,0.673 2.793,2.018 0,0.869 -0.828,1.54 -2.483,2.017 -3.02,0.869 -5.172,1.913 -6.454,3.134 -1.283,1.22 -1.924,2.762 -1.924,4.624 0,2.048 0.786,3.672 2.358,4.871 1.572,1.2 3.786,1.8 6.641,1.8 3.062,0 5.648,-0.516 7.758,-1.551 z"
               style="fill:#12111a;fill-opacity:1;fill-rule:nonzero;stroke:none"
               id="path92"
               inkscape:connector-curvature="0" />
          </g>
        </g>
      </g>
      <g
         id="g94"
         transform="matrix(3.0423019,0,0,3.0423019,393.87555,197.18566)">
        <path
           d="m 0,0 v -5.12 h -6.144 v -17.533 h -6.331 V -5.12 h -6.144 V 0 Z"
           style="fill:#12111a;fill-opacity:1;fill-rule:nonzero;stroke:none"
           id="path96"
           inkscape:connector-curvature="0" />
      </g>
      <g
         id="g98"
         transform="matrix(3.0423019,0,0,3.0423019,-203.31309,20.013258)">
        <g
           id="g100"
           clip-path="url(#clipPath104)">
          <g
             id="g106"
             transform="translate(205.6666,43.4965)">
            <path
               d="m 0,0 v -7.913 h -6.051 v 22.498 c 2.689,0.31 5.378,0.465 8.068,0.465 6.206,0 9.31,-2.327 9.31,-6.982 0,-1.304 -0.404,-2.514 -1.211,-3.631 C 9.309,3.32 8.265,2.524 6.982,2.048 V 1.986 C 7.602,1.634 8.119,1.184 8.533,0.636 8.947,0.088 9.34,-0.693 9.713,-1.707 l 2.234,-6.206 H 5.585 L 3.662,-2.017 C 3.434,-1.294 3.145,-0.776 2.793,-0.466 2.441,-0.155 1.976,0 1.396,0 Z m 0,4.499 h 1.707 c 1.055,0 1.887,0.264 2.498,0.792 0.61,0.527 0.915,1.246 0.915,2.156 0,1.966 -1.137,2.949 -3.413,2.949 C 1.045,10.396 0.475,10.343 0,10.24 Z"
               style="fill:#12111a;fill-opacity:1;fill-rule:nonzero;stroke:none"
               id="path108"
               inkscape:connector-curvature="0" />
          </g>
        </g>
      </g>
      <g
         id="g110"
         transform="matrix(3.0423019,0,0,3.0423019,486.39406,141.48476)">
        <path
           d="m 0,0 -1.024,-4.344 h -6.454 l 7.447,22.653 H 6.485 L 13.933,-4.344 H 7.354 L 6.299,0 Z M 1.117,4.655 H 5.213 L 3.196,13.034 H 3.134 Z"
           style="fill:#12111a;fill-opacity:1;fill-rule:nonzero;stroke:none"
           id="path112"
           inkscape:connector-curvature="0" />
      </g>
      <g
         id="g114"
         transform="matrix(3.0423019,0,0,3.0423019,575.51405,159.42278)">
        <path
           d="M 0,0 H 0.062 V 12.413 H 6.113 V -10.241 H 0.062 L -6.703,2.172 h -0.062 v -12.413 h -6.051 v 22.654 h 6.051 z"
           style="fill:#12111a;fill-opacity:1;fill-rule:nonzero;stroke:none"
           id="path116"
           inkscape:connector-curvature="0" />
      </g>
      <g
         id="g118"
         transform="matrix(3.0423019,0,0,3.0423019,624.60675,141.48476)">
        <path
           d="m 0,0 -1.024,-4.344 h -6.454 l 7.447,22.653 H 6.485 L 13.933,-4.344 H 7.354 L 6.299,0 Z M 1.117,4.655 H 5.213 L 3.196,13.034 H 3.134 Z"
           style="fill:#12111a;fill-opacity:1;fill-rule:nonzero;stroke:none"
           id="path120"
           inkscape:connector-curvature="0" />
      </g>
    </g>
    <text
       y="289.63739"
       x="43.356861"
       id="text132"
       style="font-variant:normal;font-weight:300;font-stretch:condensed;font-size:5.98704672px;font-family:'Roboto Condensed Light';-inkscape-font-specification:RobotoCondensed-Light;writing-mode:lr-tb;fill:#12111a;fill-opacity:1;fill-rule:nonzero;stroke:none;stroke-width:0.37863222">
      <tspan
         style="font-style:normal;font-variant:normal;font-weight:bold;font-stretch:normal;font-size:5.99108839px;font-family:'Roboto Condensed Light';-inkscape-font-specification:'Roboto Condensed Light, Bold';font-variant-ligatures:normal;font-variant-caps:normal;font-variant-numeric:normal;font-feature-settings:normal;text-align:start;writing-mode:lr-tb;text-anchor:start;stroke-width:0.37863222"
         id="tspan130"
         sodipodi:role="line"
         y="289.63739"
         x="43.356861">Pardubice</tspan>
    </text>
    <text
       y="248.69069"
       x="1.7819551"
       id="text200"
       style="font-variant:normal;font-weight:bold;font-stretch:normal;font-size:21.4586792px;font-family:'Bebas Neue Bold';-inkscape-font-specification:BebasNeueBold;writing-mode:lr-tb;fill:#12111a;fill-opacity:1;fill-rule:nonzero;stroke:none;stroke-width:0.16890296">
      <tspan
         style="stroke-width:0.16890296"
         id="tspan198"
         sodipodi:role="line"
         y="248.69069"
         x="1.7819551 8.8418684 16.524075 23.948772 32.231831">Letos</tspan>
    </text>
    <text
       y="280.31415"
       x="1.2728032"
       id="text204"
       style="font-variant:normal;font-weight:bold;font-stretch:normal;font-size:35.17852783px;font-family:'Bebas Neue Bold';-inkscape-font-specification:BebasNeueBold;writing-mode:lr-tb;fill:#12111a;fill-opacity:1;fill-rule:nonzero;stroke:none;stroke-width:0.17625816">
      <tspan
         style="stroke-width:0.17625816"
         id="tspan202"
         sodipodi:role="line"
         y="280.31415"
         x="1.2728032 14.3592 20.691347 34.481335 46.403328 57.871532 71.450439">Piráty!</tspan>
    </text>
    <g
       transform="matrix(0.05737279,0,0,-0.05737279,8.2174351,330.0387)"
       id="g1698">
      <g
         transform="translate(-309.75199,-23.827076)"
         id="g1708">
        <text
           y="-1954.9342"
           x="1211.4067"
           id="text208"
           style="font-variant:normal;font-weight:bold;font-stretch:normal;font-size:174.62466431px;font-family:'Bebas Neue Bold';-inkscape-font-specification:BebasNeueBold;writing-mode:lr-tb;fill:#12111a;fill-opacity:1;fill-rule:nonzero;stroke:none;stroke-width:3.01079059"
           transform="matrix(1,0,0,-1,-11.913538,-448.74324)">
          <tspan
             style="stroke-width:3.01079059"
             id="tspan206"
             sodipodi:role="line"
             y="-1954.9342"
             x="1211.4067">2</tspan>
        </text>
        <path
           inkscape:connector-curvature="0"
           id="path220"
           style="fill:#12111a;fill-opacity:1;fill-rule:nonzero;stroke:none;stroke-width:3.01079082"
           d="m 1369.0605,1566.0663 c 0,75.0711 -60.8571,135.9282 -135.9282,135.9282 -75.071,0 -135.9312,-60.8571 -135.9312,-135.9282 0,-75.0711 60.8602,-135.9282 135.9312,-135.9282 75.0711,0 135.9282,60.8571 135.9282,135.9282 m -42.3528,0 c 0,-51.6802 -41.8952,-93.5754 -93.5754,-93.5754 -51.6802,0 -93.5754,41.8952 -93.5754,93.5754 0,51.6802 41.8952,93.5754 93.5754,93.5754 51.6802,0 93.5754,-41.8952 93.5754,-93.5754" />
        <text
           transform="scale(1,-1)"
           y="-1438.7074"
           x="212.38464"
           id="text200-2"
           style="font-variant:normal;font-weight:bold;font-stretch:normal;font-size:382.51312256px;font-family:'Bebas Neue Bold';-inkscape-font-specification:BebasNeueBold;writing-mode:lr-tb;fill:#12111a;fill-opacity:1;fill-rule:nonzero;stroke:none;stroke-width:3.01079035">
          <tspan
             style="stroke-width:3.01079035"
             id="tspan198-6"
             sodipodi:role="line"
             x="949.87 1099.8151 1377.1372">v l</tspan>
        </text>
      </g>
    </g>
    <text
       xml:space="preserve"
       style="font-style:normal;font-variant:normal;font-weight:bold;font-stretch:normal;font-size:10.58333302px;line-height:1.25;font-family:'Roboto Condensed Light';-inkscape-font-specification:'Roboto Condensed Light,  Bold';letter-spacing:0px;word-spacing:0px;fill:#000000;fill-opacity:1;stroke:none;stroke-width:0.26458332"
       x="45.034912"
       y="292.99094"
       id="text2701"><tspan
         sodipodi:role="line"
         id="tspan2699"
         x="45.034912"
         y="302.64642"
         style="font-style:normal;font-variant:normal;font-weight:bold;font-stretch:normal;font-family:'Roboto Condensed Light';-inkscape-font-specification:'Roboto Condensed Light,  Bold';stroke-width:0.26458332" /></text>
    <g
       aria-label="přijď k volbám 5. - 6. října"
       style="font-style:normal;font-variant:normal;font-weight:bold;font-stretch:normal;font-size:3.39541483px;line-height:1.25;font-family:'Bebas Neue';-inkscape-font-specification:'Bebas Neue Bold';letter-spacing:0px;word-spacing:0px;fill:#000000;fill-opacity:1;stroke:none;stroke-width:0.08488535"
       id="text2705"
       transform="matrix(1.0072218,0,0,1.0072218,-0.41111152,-2.1780536)">
      <path
         d="m 45.065595,292.86188 q 0,0.21718 -0.03979,0.37634 -0.03813,0.15916 -0.11108,0.26361 -0.07295,0.10445 -0.180713,0.15585 -0.107765,0.0497 -0.243714,0.0497 -0.162476,0 -0.27853,-0.0647 -0.114396,-0.0663 -0.187345,-0.18402 v 0.90522 h -0.182371 v -2.48356 h 0.169108 l 0.0083,0.24537 q 0.07461,-0.13097 0.189002,-0.20392 0.114397,-0.0746 0.276872,-0.0746 0.139265,0 0.24703,0.0481 0.107765,0.0481 0.182371,0.15087 0.07461,0.10279 0.112738,0.26361 0.03813,0.15916 0.03813,0.38464 z m -0.184029,-0.16745 q 0,-0.34485 -0.107765,-0.50733 -0.106107,-0.16247 -0.333241,-0.16247 -0.08455,0 -0.152529,0.0249 -0.06632,0.0232 -0.117712,0.0647 -0.04974,0.0414 -0.08621,0.0945 -0.03482,0.053 -0.05969,0.11273 v 0.94502 q 0.02653,0.058 0.06466,0.10776 0.03979,0.0497 0.09119,0.0862 0.05139,0.0365 0.116054,0.0564 0.06632,0.0199 0.147554,0.0199 0.223819,0 0.329926,-0.16414 0.107765,-0.16579 0.107765,-0.51063 z"
         style="font-style:normal;font-variant:normal;font-weight:300;font-stretch:normal;font-size:3.39541483px;font-family:'Roboto Condensed';-inkscape-font-specification:'Roboto Condensed, Light';font-variant-ligatures:normal;font-variant-caps:normal;font-variant-numeric:normal;font-feature-settings:normal;text-align:start;writing-mode:lr-tb;text-anchor:start;stroke-width:0.08488535"
         id="path2707"
         inkscape:connector-curvature="0" />
      <path
         d="m 46.196294,292.05281 q -0.02818,-0.005 -0.05637,-0.008 -0.02653,-0.003 -0.05968,-0.003 -0.08124,0 -0.147555,0.0298 -0.06466,0.0282 -0.114396,0.0812 -0.04974,0.0514 -0.08621,0.12434 -0.03482,0.0729 -0.05471,0.15916 v 1.23847 h -0.184029 v -1.79387 h 0.180713 l 0.0033,0.26858 q 0.06134,-0.14092 0.162476,-0.2205 0.101133,-0.0812 0.248688,-0.0812 0.02984,0 0.063,0.007 0.03316,0.007 0.04808,0.0149 z m -0.344847,-0.58358 0.233767,-0.31998 h 0.162476 v 0.0199 l -0.333242,0.43438 h -0.127659 l -0.331584,-0.43604 v -0.0182 h 0.162476 z"
         style="font-style:normal;font-variant:normal;font-weight:300;font-stretch:normal;font-size:3.39541483px;font-family:'Roboto Condensed';-inkscape-font-specification:'Roboto Condensed, Light';font-variant-ligatures:normal;font-variant-caps:normal;font-variant-numeric:normal;font-feature-settings:normal;text-align:start;writing-mode:lr-tb;text-anchor:start;stroke-width:0.08488535"
         id="path2709"
         inkscape:connector-curvature="0" />
      <path
         d="m 46.726828,293.67426 h -0.185687 v -1.79387 h 0.185687 z m -0.212214,-2.31114 q 0,-0.0564 0.0315,-0.0962 0.0315,-0.0398 0.08953,-0.0398 0.05803,0 0.08953,0.0398 0.03316,0.0398 0.03316,0.0962 0,0.0564 -0.03316,0.0962 -0.0315,0.0381 -0.08953,0.0381 -0.05803,0 -0.08953,-0.0381 -0.0315,-0.0398 -0.0315,-0.0962 z"
         style="font-style:normal;font-variant:normal;font-weight:300;font-stretch:normal;font-size:3.39541483px;font-family:'Roboto Condensed';-inkscape-font-specification:'Roboto Condensed, Light';font-variant-ligatures:normal;font-variant-caps:normal;font-variant-numeric:normal;font-feature-settings:normal;text-align:start;writing-mode:lr-tb;text-anchor:start;stroke-width:0.08488535"
         id="path2711"
         inkscape:connector-curvature="0" />
      <path
         d="m 47.434758,291.88039 v 2.00774 q 0,0.24868 -0.101132,0.37966 -0.09948,0.13098 -0.29511,0.13098 -0.03482,0 -0.07461,-0.008 -0.03979,-0.008 -0.07295,-0.0232 l 0.0017,-0.16744 q 0.02487,0.008 0.05968,0.0149 0.03482,0.007 0.063,0.007 0.114397,0 0.174082,-0.0829 0.06134,-0.0812 0.06134,-0.25034 v -2.00774 z m -0.212213,-0.51727 q 0,-0.0564 0.02984,-0.0962 0.0315,-0.0398 0.08953,-0.0398 0.05803,0 0.08953,0.0398 0.03316,0.0398 0.03316,0.0962 0,0.0564 -0.03316,0.0962 -0.0315,0.0381 -0.08953,0.0381 -0.05803,0 -0.08953,-0.0381 -0.02984,-0.0398 -0.02984,-0.0962 z"
         style="font-style:normal;font-variant:normal;font-weight:300;font-stretch:normal;font-size:3.39541483px;font-family:'Roboto Condensed';-inkscape-font-specification:'Roboto Condensed, Light';font-variant-ligatures:normal;font-variant-caps:normal;font-variant-numeric:normal;font-feature-settings:normal;text-align:start;writing-mode:lr-tb;text-anchor:start;stroke-width:0.08488535"
         id="path2713"
         inkscape:connector-curvature="0" />
      <path
         d="m 47.894002,292.69443 q 0,-0.22548 0.03979,-0.38464 0.04145,-0.16082 0.117712,-0.26361 0.07626,-0.10279 0.184029,-0.15087 0.109422,-0.0481 0.243714,-0.0481 0.160818,0 0.271898,0.0729 0.112739,0.0713 0.184029,0.20061 v -0.9931 h 0.184029 v 2.54657 h -0.172424 l -0.0083,-0.23046 q -0.07129,0.12435 -0.185687,0.19398 -0.112738,0.0696 -0.275214,0.0696 -0.134292,0 -0.242056,-0.0497 -0.107765,-0.0514 -0.184029,-0.15585 -0.07461,-0.10445 -0.116054,-0.26361 -0.04145,-0.15916 -0.04145,-0.37634 z m 0.187344,0.16745 q 0,0.34484 0.102791,0.50732 0.104449,0.16247 0.329926,0.16247 0.08124,0 0.145897,-0.0199 0.06632,-0.0215 0.117712,-0.058 0.05305,-0.0381 0.09118,-0.0879 0.03813,-0.0514 0.06632,-0.11108 v -0.93009 q -0.02487,-0.0597 -0.06134,-0.1144 -0.03647,-0.0547 -0.08787,-0.0945 -0.04974,-0.0414 -0.117712,-0.0663 -0.06632,-0.0249 -0.152528,-0.0249 -0.227135,0 -0.331584,0.16413 -0.102791,0.16248 -0.102791,0.50567 z m 1.495442,-1.54187 q 0,0.15253 -0.05471,0.29511 -0.05305,0.14092 -0.149213,0.2404 l -0.107764,-0.0879 q 0.063,-0.10279 0.09616,-0.20724 0.03316,-0.10445 0.03316,-0.23542 v -0.1973 h 0.182371 z"
         style="font-style:normal;font-variant:normal;font-weight:300;font-stretch:normal;font-size:3.39541483px;font-family:'Roboto Condensed';-inkscape-font-specification:'Roboto Condensed, Light';font-variant-ligatures:normal;font-variant-caps:normal;font-variant-numeric:normal;font-feature-settings:normal;text-align:start;writing-mode:lr-tb;text-anchor:start;stroke-width:0.08488535"
         id="path2715"
         inkscape:connector-curvature="0" />
      <path
         d="m 50.999281,292.77732 -0.187345,0.2089 v 0.68804 H 50.62625 v -2.54657 h 0.185686 v 1.61979 l 0.154187,-0.19563 0.555402,-0.67146 h 0.228793 l -0.630009,0.75767 0.689694,1.0362 h -0.218845 z"
         style="font-style:normal;font-variant:normal;font-weight:300;font-stretch:normal;font-size:3.39541483px;font-family:'Roboto Condensed';-inkscape-font-specification:'Roboto Condensed, Light';font-variant-ligatures:normal;font-variant-caps:normal;font-variant-numeric:normal;font-feature-settings:normal;text-align:start;writing-mode:lr-tb;text-anchor:start;stroke-width:0.08488535"
         id="path2717"
         inkscape:connector-curvature="0" />
      <path
         d="m 53.336944,293.38578 0.441006,-1.50539 h 0.189003 l -0.558718,1.79387 h -0.145897 l -0.562034,-1.79387 h 0.189003 z"
         style="font-style:normal;font-variant:normal;font-weight:300;font-stretch:normal;font-size:3.39541483px;font-family:'Roboto Condensed';-inkscape-font-specification:'Roboto Condensed, Light';font-variant-ligatures:normal;font-variant-caps:normal;font-variant-numeric:normal;font-feature-settings:normal;text-align:start;writing-mode:lr-tb;text-anchor:start;stroke-width:0.08488535"
         id="path2719"
         inkscape:connector-curvature="0" />
      <path
         d="m 54.204036,292.68614 q 0,-0.20393 0.04808,-0.35977 0.04808,-0.15585 0.134292,-0.26195 0.08621,-0.10777 0.205581,-0.16248 0.121028,-0.0547 0.266925,-0.0547 0.147555,0 0.268583,0.0547 0.121028,0.0547 0.207239,0.16248 0.08621,0.1061 0.132634,0.26195 0.04808,0.15584 0.04808,0.35977 v 0.18568 q 0,0.20393 -0.04808,0.35977 -0.04642,0.15585 -0.132634,0.26195 -0.08621,0.10445 -0.207239,0.15916 -0.11937,0.0547 -0.265267,0.0547 -0.147555,0 -0.268583,-0.0547 -0.121028,-0.0547 -0.207239,-0.15916 -0.08621,-0.1061 -0.134292,-0.26195 -0.04808,-0.15584 -0.04808,-0.35977 z m 0.185686,0.18568 q 0,0.15419 0.0315,0.27688 0.0315,0.12268 0.09119,0.20889 0.06134,0.0862 0.149213,0.13264 0.08787,0.0464 0.200608,0.0464 0.11937,0 0.20724,-0.0464 0.08787,-0.0464 0.145896,-0.13264 0.05803,-0.0862 0.08621,-0.20889 0.02984,-0.12269 0.02984,-0.27688 v -0.18568 q 0,-0.15087 -0.0315,-0.27356 -0.0315,-0.12434 -0.09284,-0.21056 -0.05969,-0.0879 -0.147555,-0.13429 -0.08787,-0.0481 -0.200608,-0.0481 -0.11108,0 -0.19895,0.0481 -0.08621,0.0464 -0.147555,0.13429 -0.05969,0.0862 -0.09119,0.21056 -0.0315,0.12269 -0.0315,0.27356 z"
         style="font-style:normal;font-variant:normal;font-weight:300;font-stretch:normal;font-size:3.39541483px;font-family:'Roboto Condensed';-inkscape-font-specification:'Roboto Condensed, Light';font-variant-ligatures:normal;font-variant-caps:normal;font-variant-numeric:normal;font-feature-settings:normal;text-align:start;writing-mode:lr-tb;text-anchor:start;stroke-width:0.08488535"
         id="path2721"
         inkscape:connector-curvature="0" />
      <path
         d="m 56.143799,293.67426 h -0.185687 v -2.54657 h 0.185687 z"
         style="font-style:normal;font-variant:normal;font-weight:300;font-stretch:normal;font-size:3.39541483px;font-family:'Roboto Condensed';-inkscape-font-specification:'Roboto Condensed, Light';font-variant-ligatures:normal;font-variant-caps:normal;font-variant-numeric:normal;font-feature-settings:normal;text-align:start;writing-mode:lr-tb;text-anchor:start;stroke-width:0.08488535"
         id="path2723"
         inkscape:connector-curvature="0" />
      <path
         d="m 57.879638,292.86188 q 0,0.21718 -0.03979,0.37634 -0.03813,0.15916 -0.112738,0.26361 -0.07295,0.10445 -0.180713,0.15585 -0.106107,0.0497 -0.243714,0.0497 -0.16745,0 -0.283504,-0.0729 -0.114396,-0.073 -0.185687,-0.20061 l -0.0083,0.2404 h -0.170766 v -2.54657 h 0.182371 v 1.00304 q 0.07129,-0.13429 0.184029,-0.20889 0.112738,-0.0746 0.27853,-0.0746 0.139265,0 0.24703,0.0481 0.107764,0.0481 0.180713,0.15087 0.07461,0.10279 0.112738,0.26361 0.03979,0.15916 0.03979,0.38464 z m -0.184029,-0.16745 q 0,-0.34153 -0.101133,-0.50567 -0.101133,-0.16413 -0.331583,-0.16413 -0.08953,0 -0.15916,0.0265 -0.06963,0.0265 -0.121028,0.0713 -0.0514,0.0448 -0.08787,0.10445 -0.03482,0.058 -0.05803,0.12103 v 0.88865 q 0.02487,0.063 0.063,0.11771 0.03979,0.053 0.09284,0.0928 0.05305,0.0398 0.121028,0.063 0.06797,0.0216 0.152529,0.0216 0.22216,0 0.324951,-0.16247 0.104449,-0.16248 0.104449,-0.50732 z"
         style="font-style:normal;font-variant:normal;font-weight:300;font-stretch:normal;font-size:3.39541483px;font-family:'Roboto Condensed';-inkscape-font-specification:'Roboto Condensed, Light';font-variant-ligatures:normal;font-variant-caps:normal;font-variant-numeric:normal;font-feature-settings:normal;text-align:start;writing-mode:lr-tb;text-anchor:start;stroke-width:0.08488535"
         id="path2725"
         inkscape:connector-curvature="0" />
      <path
         d="m 59.254052,293.67426 q -0.01326,-0.0448 -0.02155,-0.11109 -0.0083,-0.068 -0.0116,-0.1376 -0.03482,0.0564 -0.0829,0.10776 -0.04808,0.0497 -0.111081,0.0895 -0.06134,0.0381 -0.137607,0.0613 -0.07626,0.0232 -0.164134,0.0232 -0.11108,0 -0.202266,-0.0315 -0.08953,-0.0315 -0.154186,-0.0945 -0.06466,-0.063 -0.09947,-0.1575 -0.03482,-0.0945 -0.03482,-0.2205 0,-0.12435 0.04311,-0.2288 0.04311,-0.1061 0.127659,-0.18237 0.08621,-0.0763 0.213872,-0.11937 0.127659,-0.0431 0.296767,-0.0431 h 0.303399 v -0.25035 q 0,-0.19232 -0.09616,-0.27521 -0.0945,-0.0846 -0.27853,-0.0846 -0.08621,0 -0.15916,0.0265 -0.07129,0.0265 -0.122686,0.0746 -0.05139,0.0464 -0.07958,0.11274 -0.02818,0.0647 -0.02818,0.14258 l -0.184029,-0.002 q 0,-0.10445 0.04145,-0.19895 0.04145,-0.0962 0.117712,-0.16911 0.07626,-0.0729 0.184029,-0.11605 0.107764,-0.0431 0.23874,-0.0431 0.121028,0 0.220503,0.0298 0.101133,0.0282 0.174081,0.0928 0.07295,0.063 0.112739,0.16579 0.04145,0.10113 0.04145,0.24703 v 0.91517 q 0,0.0464 0.0033,0.0962 0.0033,0.0497 0.0083,0.0978 0.0066,0.0464 0.01492,0.0895 0.0099,0.0414 0.02155,0.0729 v 0.0199 z m -0.505665,-0.14424 q 0.08621,0 0.160818,-0.0232 0.07626,-0.0249 0.135949,-0.0663 0.05969,-0.0431 0.102791,-0.0995 0.04476,-0.0564 0.07129,-0.12102 v -0.43604 h -0.276873 q -0.260293,0 -0.391268,0.10943 -0.130976,0.10942 -0.130976,0.29511 0,0.17739 0.08621,0.26029 0.08787,0.0812 0.242056,0.0812 z m 0.351479,-2.38409 h 0.240398 l -0.382979,0.46422 h -0.174082 z"
         style="font-style:normal;font-variant:normal;font-weight:300;font-stretch:normal;font-size:3.39541483px;font-family:'Roboto Condensed';-inkscape-font-specification:'Roboto Condensed, Light';font-variant-ligatures:normal;font-variant-caps:normal;font-variant-numeric:normal;font-feature-settings:normal;text-align:start;writing-mode:lr-tb;text-anchor:start;stroke-width:0.08488535"
         id="path2727"
         inkscape:connector-curvature="0" />
      <path
         d="m 60.073064,291.88039 0.005,0.26858 q 0.07626,-0.13761 0.195634,-0.21884 0.121028,-0.0829 0.285162,-0.0829 0.160818,0 0.276872,0.0796 0.117712,0.0779 0.170765,0.25035 0.03648,-0.0713 0.08621,-0.13264 0.0514,-0.0613 0.116054,-0.10445 0.06466,-0.0431 0.140923,-0.068 0.07626,-0.0249 0.165792,-0.0249 0.117712,0 0.208898,0.0381 0.09284,0.0365 0.155844,0.11771 0.06466,0.0796 0.09782,0.20393 0.03316,0.12434 0.03316,0.29842 v 1.16884 H 61.82717 v -1.17049 q 0,-0.14093 -0.02653,-0.23377 -0.02487,-0.0928 -0.07295,-0.14756 -0.04642,-0.0564 -0.112739,-0.0779 -0.06632,-0.0215 -0.145897,-0.0215 -0.09947,0.002 -0.175739,0.0448 -0.07626,0.0414 -0.129317,0.10777 -0.05305,0.0647 -0.0829,0.14589 -0.02819,0.0812 -0.03482,0.15916 v 1.19371 h -0.185686 v -1.18542 q 0,-0.13263 -0.02653,-0.22216 -0.02487,-0.0895 -0.07295,-0.14258 -0.04642,-0.0547 -0.112739,-0.0779 -0.06632,-0.0232 -0.145896,-0.0232 -0.08953,0 -0.159161,0.0348 -0.06963,0.0331 -0.121027,0.0895 -0.0514,0.0547 -0.08621,0.12766 -0.03482,0.0729 -0.05471,0.15087 v 1.24842 H 59.89734 v -1.79387 z"
         style="font-style:normal;font-variant:normal;font-weight:300;font-stretch:normal;font-size:3.39541483px;font-family:'Roboto Condensed';-inkscape-font-specification:'Roboto Condensed, Light';font-variant-ligatures:normal;font-variant-caps:normal;font-variant-numeric:normal;font-feature-settings:normal;text-align:start;writing-mode:lr-tb;text-anchor:start;stroke-width:0.08488535"
         id="path2729"
         inkscape:connector-curvature="0" />
      <path
         d="m 63.340817,292.43745 0.09947,-1.17712 h 1.01962 v 0.189 H 63.59779 l -0.06797,0.80906 q 0.02653,-0.0216 0.06466,-0.0448 0.03813,-0.0249 0.08621,-0.0431 0.04808,-0.0199 0.102791,-0.0315 0.05637,-0.0133 0.11937,-0.0133 0.13595,0 0.24703,0.0547 0.111081,0.0531 0.189003,0.15419 0.07792,0.10113 0.121028,0.24537 0.0431,0.14424 0.0431,0.32495 0,0.17408 -0.03647,0.32164 -0.03647,0.14589 -0.11108,0.25366 -0.07461,0.10611 -0.190661,0.16745 -0.114396,0.0597 -0.273556,0.0597 -0.122686,0 -0.230451,-0.0398 -0.106106,-0.0414 -0.189002,-0.12434 -0.0829,-0.0829 -0.135949,-0.2089 -0.05305,-0.126 -0.06466,-0.29511 h 0.175739 q 0.02321,0.24372 0.137607,0.37138 0.114397,0.126 0.306715,0.126 0.210555,0 0.31832,-0.16414 0.109423,-0.16413 0.109423,-0.46421 0,-0.126 -0.02984,-0.23543 -0.02984,-0.10942 -0.08787,-0.189 -0.05637,-0.0812 -0.140923,-0.126 -0.0829,-0.0464 -0.192319,-0.0464 -0.07295,0 -0.12766,0.0133 -0.05471,0.0116 -0.09947,0.0348 -0.04311,0.0215 -0.08124,0.053 -0.03647,0.0315 -0.07295,0.0713 z"
         style="font-style:normal;font-variant:normal;font-weight:300;font-stretch:normal;font-size:3.39541483px;font-family:'Roboto Condensed';-inkscape-font-specification:'Roboto Condensed, Light';font-variant-ligatures:normal;font-variant-caps:normal;font-variant-numeric:normal;font-feature-settings:normal;text-align:start;writing-mode:lr-tb;text-anchor:start;stroke-width:0.08488535"
         id="path2731"
         inkscape:connector-curvature="0" />
      <path
         d="m 64.899261,293.55323 q 0,-0.0597 0.03647,-0.0995 0.03813,-0.0414 0.104449,-0.0414 0.06632,0 0.104449,0.0414 0.03813,0.0398 0.03813,0.0995 0,0.058 -0.03813,0.0962 -0.03813,0.0381 -0.104449,0.0381 -0.06632,0 -0.104449,-0.0381 -0.03647,-0.0381 -0.03647,-0.0962 z"
         style="font-style:normal;font-variant:normal;font-weight:300;font-stretch:normal;font-size:3.39541483px;font-family:'Roboto Condensed';-inkscape-font-specification:'Roboto Condensed, Light';font-variant-ligatures:normal;font-variant-caps:normal;font-variant-numeric:normal;font-feature-settings:normal;text-align:start;writing-mode:lr-tb;text-anchor:start;stroke-width:0.08488535"
         id="path2733"
         inkscape:connector-curvature="0" />
      <path
         d="m 66.998184,292.69608 h -0.669799 v -0.17076 h 0.669799 z"
         style="font-style:normal;font-variant:normal;font-weight:300;font-stretch:normal;font-size:3.39541483px;font-family:'Roboto Condensed';-inkscape-font-specification:'Roboto Condensed, Light';font-variant-ligatures:normal;font-variant-caps:normal;font-variant-numeric:normal;font-feature-settings:normal;text-align:start;writing-mode:lr-tb;text-anchor:start;stroke-width:0.08488535"
         id="path2735"
         inkscape:connector-curvature="0" />
      <path
         d="m 69.077213,291.24375 v 0.1774 h -0.02487 q -0.182371,0 -0.323294,0.0663 -0.140923,0.0647 -0.23874,0.189 -0.09782,0.12269 -0.154186,0.29843 -0.05471,0.17574 -0.06632,0.39458 0.08455,-0.13429 0.210556,-0.20724 0.126002,-0.0729 0.280188,-0.0729 0.145897,0 0.255319,0.0647 0.111081,0.0646 0.182371,0.17408 0.07295,0.10776 0.109423,0.252 0.03647,0.14424 0.03647,0.3034 0,0.17408 -0.04145,0.32495 -0.04145,0.15087 -0.11937,0.26195 -0.07792,0.10942 -0.190661,0.17408 -0.11108,0.063 -0.253661,0.063 -0.155844,0 -0.27853,-0.0696 -0.121028,-0.0713 -0.205582,-0.19232 -0.08455,-0.12103 -0.129317,-0.28184 -0.04311,-0.16082 -0.04311,-0.34319 v -0.21056 q 0,-0.30671 0.05471,-0.55872 0.05637,-0.252 0.174081,-0.43105 0.11937,-0.17906 0.301741,-0.27688 0.184029,-0.0995 0.439348,-0.0995 z m -0.346505,1.01962 q -0.07958,0 -0.154186,0.0298 -0.07461,0.0298 -0.137607,0.0829 -0.06134,0.0531 -0.106107,0.126 -0.04476,0.0713 -0.06632,0.15584 v 0.16579 q 0,0.16745 0.03647,0.30009 0.03813,0.13097 0.101133,0.22216 0.06466,0.0912 0.15087,0.14092 0.08621,0.0481 0.184029,0.0481 0.09947,0 0.177397,-0.0497 0.07958,-0.0514 0.134291,-0.1376 0.05471,-0.0879 0.0829,-0.20559 0.02984,-0.11771 0.02984,-0.25034 0,-0.126 -0.02653,-0.2404 -0.02653,-0.1144 -0.08124,-0.20061 -0.05305,-0.0862 -0.134291,-0.13595 -0.08124,-0.0514 -0.190661,-0.0514 z"
         style="font-style:normal;font-variant:normal;font-weight:300;font-stretch:normal;font-size:3.39541483px;font-family:'Roboto Condensed';-inkscape-font-specification:'Roboto Condensed, Light';font-variant-ligatures:normal;font-variant-caps:normal;font-variant-numeric:normal;font-feature-settings:normal;text-align:start;writing-mode:lr-tb;text-anchor:start;stroke-width:0.08488535"
         id="path2737"
         inkscape:connector-curvature="0" />
      <path
         d="m 69.760275,293.55323 q 0,-0.0597 0.03647,-0.0995 0.03813,-0.0414 0.104448,-0.0414 0.06632,0 0.104449,0.0414 0.03813,0.0398 0.03813,0.0995 0,0.058 -0.03813,0.0962 -0.03813,0.0381 -0.104449,0.0381 -0.06632,0 -0.104448,-0.0381 -0.03647,-0.0381 -0.03647,-0.0962 z"
         style="font-style:normal;font-variant:normal;font-weight:300;font-stretch:normal;font-size:3.39541483px;font-family:'Roboto Condensed';-inkscape-font-specification:'Roboto Condensed, Light';font-variant-ligatures:normal;font-variant-caps:normal;font-variant-numeric:normal;font-feature-settings:normal;text-align:start;writing-mode:lr-tb;text-anchor:start;stroke-width:0.08488535"
         id="path2739"
         inkscape:connector-curvature="0" />
      <path
         d="m 72.039912,292.05281 q -0.02819,-0.005 -0.05637,-0.008 -0.02653,-0.003 -0.05969,-0.003 -0.08124,0 -0.147555,0.0298 -0.06466,0.0282 -0.114396,0.0812 -0.04974,0.0514 -0.08621,0.12434 -0.03482,0.0729 -0.05471,0.15916 v 1.23847 h -0.184029 v -1.79387 h 0.180713 l 0.0033,0.26858 q 0.06134,-0.14092 0.162476,-0.2205 0.101133,-0.0812 0.248687,-0.0812 0.02984,0 0.063,0.007 0.03316,0.007 0.04808,0.0149 z m -0.344847,-0.58358 0.233767,-0.31998 h 0.162475 v 0.0199 l -0.333241,0.43438 h -0.12766 l -0.331583,-0.43604 v -0.0182 h 0.162476 z"
         style="font-style:normal;font-variant:normal;font-weight:300;font-stretch:normal;font-size:3.39541483px;font-family:'Roboto Condensed';-inkscape-font-specification:'Roboto Condensed, Light';font-variant-ligatures:normal;font-variant-caps:normal;font-variant-numeric:normal;font-feature-settings:normal;text-align:start;writing-mode:lr-tb;text-anchor:start;stroke-width:0.08488535"
         id="path2741"
         inkscape:connector-curvature="0" />
      <path
         d="M 72.567129,293.67426 H 72.3831 v -1.79387 h 0.184029 z m 0.111081,-2.50843 h 0.240398 l -0.382979,0.46421 h -0.174081 z"
         style="font-style:normal;font-variant:normal;font-weight:300;font-stretch:normal;font-size:3.39541483px;font-family:'Roboto Condensed';-inkscape-font-specification:'Roboto Condensed, Light';font-variant-ligatures:normal;font-variant-caps:normal;font-variant-numeric:normal;font-feature-settings:normal;text-align:start;writing-mode:lr-tb;text-anchor:start;stroke-width:0.08488535"
         id="path2743"
         inkscape:connector-curvature="0" />
      <path
         d="m 73.278374,291.88039 v 2.00774 q 0,0.24868 -0.101132,0.37966 -0.09948,0.13098 -0.29511,0.13098 -0.03482,0 -0.07461,-0.008 -0.03979,-0.008 -0.07295,-0.0232 l 0.0017,-0.16744 q 0.02487,0.008 0.05969,0.0149 0.03482,0.007 0.063,0.007 0.114397,0 0.174082,-0.0829 0.06134,-0.0812 0.06134,-0.25034 v -2.00774 z m -0.212213,-0.51727 q 0,-0.0564 0.02984,-0.0962 0.0315,-0.0398 0.08953,-0.0398 0.05803,0 0.08953,0.0398 0.03316,0.0398 0.03316,0.0962 0,0.0564 -0.03316,0.0962 -0.0315,0.0381 -0.08953,0.0381 -0.05803,0 -0.08953,-0.0381 -0.02984,-0.0398 -0.02984,-0.0962 z"
         style="font-style:normal;font-variant:normal;font-weight:300;font-stretch:normal;font-size:3.39541483px;font-family:'Roboto Condensed';-inkscape-font-specification:'Roboto Condensed, Light';font-variant-ligatures:normal;font-variant-caps:normal;font-variant-numeric:normal;font-feature-settings:normal;text-align:start;writing-mode:lr-tb;text-anchor:start;stroke-width:0.08488535"
         id="path2745"
         inkscape:connector-curvature="0" />
      <path
         d="m 73.979674,291.88039 0.005,0.28516 q 0.07958,-0.1459 0.202266,-0.23211 0.124344,-0.0862 0.281846,-0.0862 0.112738,0 0.200608,0.0365 0.08953,0.0365 0.15087,0.11606 0.063,0.0796 0.09616,0.20558 0.03316,0.12434 0.03316,0.30174 v 1.16718 h -0.182371 v -1.16884 q 0,-0.1376 -0.02487,-0.23045 -0.02321,-0.0928 -0.06797,-0.14755 -0.04476,-0.0564 -0.109423,-0.0796 -0.063,-0.0249 -0.142581,-0.0249 -0.0829,0 -0.152528,0.0348 -0.06798,0.0331 -0.122686,0.0895 -0.05471,0.0564 -0.0945,0.12932 -0.03979,0.0729 -0.06466,0.15253 v 1.2451 h -0.184029 v -1.79387 z"
         style="font-style:normal;font-variant:normal;font-weight:300;font-stretch:normal;font-size:3.39541483px;font-family:'Roboto Condensed';-inkscape-font-specification:'Roboto Condensed, Light';font-variant-ligatures:normal;font-variant-caps:normal;font-variant-numeric:normal;font-feature-settings:normal;text-align:start;writing-mode:lr-tb;text-anchor:start;stroke-width:0.08488535"
         id="path2747"
         inkscape:connector-curvature="0" />
      <path
         d="m 76.390287,293.67426 q -0.01326,-0.0448 -0.02155,-0.11109 -0.0083,-0.068 -0.01161,-0.1376 -0.03482,0.0564 -0.0829,0.10776 -0.04808,0.0497 -0.111081,0.0895 -0.06134,0.0381 -0.137607,0.0613 -0.07626,0.0232 -0.164134,0.0232 -0.11108,0 -0.202265,-0.0315 -0.08953,-0.0315 -0.154187,-0.0945 -0.06466,-0.063 -0.09947,-0.1575 -0.03482,-0.0945 -0.03482,-0.2205 0,-0.12435 0.04311,-0.2288 0.04311,-0.1061 0.127659,-0.18237 0.08621,-0.0763 0.213872,-0.11937 0.127659,-0.0431 0.296767,-0.0431 h 0.303399 v -0.25035 q 0,-0.19232 -0.09616,-0.27521 -0.0945,-0.0846 -0.27853,-0.0846 -0.08621,0 -0.159161,0.0265 -0.07129,0.0265 -0.122685,0.0746 -0.0514,0.0464 -0.07958,0.11274 -0.02818,0.0647 -0.02818,0.14258 l -0.184029,-0.002 q 0,-0.10445 0.04145,-0.19895 0.04145,-0.0962 0.117712,-0.16911 0.07626,-0.0729 0.184029,-0.11605 0.107765,-0.0431 0.23874,-0.0431 0.121028,0 0.220503,0.0298 0.101133,0.0282 0.174081,0.0928 0.07295,0.063 0.112739,0.16579 0.04145,0.10113 0.04145,0.24703 v 0.91517 q 0,0.0464 0.0033,0.0962 0.0033,0.0497 0.0083,0.0978 0.0066,0.0464 0.01492,0.0895 0.0099,0.0414 0.02155,0.0729 v 0.0199 z m -0.505665,-0.14424 q 0.08621,0 0.160818,-0.0232 0.07627,-0.0249 0.13595,-0.0663 0.05969,-0.0431 0.10279,-0.0995 0.04476,-0.0564 0.07129,-0.12102 v -0.43604 h -0.276872 q -0.260293,0 -0.391269,0.10943 -0.130975,0.10942 -0.130975,0.29511 0,0.17739 0.08621,0.26029 0.08787,0.0812 0.242056,0.0812 z"
         style="font-style:normal;font-variant:normal;font-weight:300;font-stretch:normal;font-size:3.39541483px;font-family:'Roboto Condensed';-inkscape-font-specification:'Roboto Condensed, Light';font-variant-ligatures:normal;font-variant-caps:normal;font-variant-numeric:normal;font-feature-settings:normal;text-align:start;writing-mode:lr-tb;text-anchor:start;stroke-width:0.08488535"
         id="path2749"
         inkscape:connector-curvature="0" />
    </g>
  </g>
</svg>
