<?xml version="1.0" encoding="UTF-8" standalone="no"?>
<!-- Created with Inkscape (http://www.inkscape.org/) -->

<svg
   xmlns:dc="http://purl.org/dc/elements/1.1/"
   xmlns:cc="http://creativecommons.org/ns#"
   xmlns:rdf="http://www.w3.org/1999/02/22-rdf-syntax-ns#"
   xmlns:svg="http://www.w3.org/2000/svg"
   xmlns="http://www.w3.org/2000/svg"
   xmlns:xlink="http://www.w3.org/1999/xlink"
   xmlns:sodipodi="http://sodipodi.sourceforge.net/DTD/sodipodi-0.dtd"
   xmlns:inkscape="http://www.inkscape.org/namespaces/inkscape"
   width="148mm"
   height="210mm"
   viewBox="0 0 148 210"
   version="1.1"
   id="svg8"
   inkscape:version="0.92.3 (2405546, 2018-03-11)"
   sodipodi:docname="letak-program-pro-petku.svg">
  <defs
     id="defs2">
    <path
       d="M2.716 4.385h165.333V51.1H2.716z"
       id="a" />
    <path
       d="M2.716 4.385h165.333V51.1H2.716z"
       id="c" />
    <path
       d="M2.716 4.385h165.333V51.1H2.716z"
       id="e" />
    <path
       d="M2.716 4.385h165.333V51.1H2.716z"
       id="g" />
    <path
       d="M2.716 4.385h165.333V51.1H2.716z"
       id="i" />
  </defs>
  <sodipodi:namedview
     id="base"
     pagecolor="#ffffff"
     bordercolor="#666666"
     borderopacity="1.0"
     inkscape:pageopacity="0.0"
     inkscape:pageshadow="2"
     inkscape:zoom="1.979899"
     inkscape:cx="205.85743"
     inkscape:cy="161.23869"
     inkscape:document-units="mm"
     inkscape:current-layer="layer1"
     showgrid="false"
     showguides="false"
     inkscape:guide-bbox="true"
     inkscape:snap-global="false"
     inkscape:window-width="1680"
     inkscape:window-height="1028"
     inkscape:window-x="0"
     inkscape:window-y="0"
     inkscape:window-maximized="0">
    <sodipodi:guide
       position="12,0"
       orientation="1,0"
       id="guide851"
       inkscape:locked="false"
       inkscape:label=""
       inkscape:color="rgb(0,0,255)" />
    <sodipodi:guide
       position="133,0"
       orientation="1,0"
       id="guide853"
       inkscape:locked="false"
       inkscape:label=""
       inkscape:color="rgb(0,0,255)" />
    <inkscape:grid
       type="xygrid"
       id="grid1181" />
    <sodipodi:guide
       position="0,15"
       orientation="0,1"
       id="guide1183"
       inkscape:locked="false"
       inkscape:label=""
       inkscape:color="rgb(0,0,255)" />
    <sodipodi:guide
       position="0,198"
       orientation="0,1"
       id="guide1185"
       inkscape:locked="false"
       inkscape:label=""
       inkscape:color="rgb(0,0,255)" />
    <sodipodi:guide
       position="4.009043,192.03316"
       orientation="0,1"
       id="guide1479"
       inkscape:locked="false" />
    <sodipodi:guide
       position="15,132.56569"
       orientation="1,0"
       id="guide1519"
       inkscape:locked="false"
       inkscape:label=""
       inkscape:color="rgb(0,0,255)" />
  </sodipodi:namedview>
  <metadata
     id="metadata5">
    <rdf:RDF>
      <cc:Work
         rdf:about="">
        <dc:format>image/svg+xml</dc:format>
        <dc:type
           rdf:resource="http://purl.org/dc/dcmitype/StillImage" />
        <dc:title />
      </cc:Work>
    </rdf:RDF>
  </metadata>
  <g
     inkscape:label="Layer 1"
     inkscape:groupmode="layer"
     id="layer1"
     transform="translate(0,-87)">
    <text
       xml:space="preserve"
       style="font-style:normal;font-variant:normal;font-weight:bold;font-stretch:normal;font-size:7.05555534px;line-height:1.25;font-family:'Bebas Neue';-inkscape-font-specification:'Bebas Neue Bold';letter-spacing:0px;word-spacing:0px;fill:#000000;fill-opacity:1;stroke:none;stroke-width:0.22508933"
       x="11.576195"
       y="104.93227"
       id="text817"><tspan
         sodipodi:role="line"
         id="tspan815"
         x="11.576195"
         y="104.93227"
         style="stroke-width:0.22508933">Pirátský program pro „Pětku“ </tspan></text>
    <g
       id="g1477"
       transform="matrix(0.12477126,0,0,0.12477126,111.74448,98.435914)">
      <path
         id="path1393"
         d="m 24.691,7.159 c -5.866,0 -11.384,2.289 -15.542,6.438 -4.147,4.149 -6.435,9.669 -6.435,15.535 0,5.876 2.287,11.396 6.435,15.539 4.158,4.147 9.675,6.429 15.542,6.429 5.87,0 11.384,-2.281 15.531,-6.429 4.158,-4.144 6.44,-9.663 6.44,-15.539 0,-5.866 -2.282,-11.386 -6.44,-15.535 -4.146,-4.15 -9.66,-6.438 -15.531,-6.438 m 0,41.857 c -10.965,0 -19.885,-8.915 -19.885,-19.884 0,-10.962 8.919,-19.88 19.885,-19.88 10.961,0 19.883,8.918 19.883,19.88 0.001,10.969 -8.922,19.884 -19.883,19.884"
         clip-path="url(#b)"
         inkscape:connector-curvature="0" />
      <path
         id="path1395"
         d="m 18.068,16.063 v -3.077 h -1.921 v 3.552 c -1.301,0.401 -2.056,0.815 -1.932,1.069 0.431,-0.118 1.115,-0.169 1.932,-0.121 v 18.495 c -1.962,3.833 0.861,9.698 0.861,9.698 0,0 -2.124,-6.299 2.6,-9.272 C 23.945,33.675 38.91,34.956 38.854,26.513 38.789,14.551 24.986,14.622 18.068,16.063 m 6.177,11.597 c -0.673,3.185 -4.147,4.845 -6.177,6.224 V 17.779 c 3.459,0.83 7.525,3.489 6.177,9.881 M 59.936,9.602 c -1.753,0 -3.416,0.112 -4.987,0.344 v 16.436 h 4.42 v -5.167 c 0.393,0.042 0.884,0.066 1.474,0.066 2.222,0 3.912,-0.517 5.071,-1.554 1.153,-1.033 1.733,-2.559 1.733,-4.569 0,-3.702 -2.571,-5.556 -7.711,-5.556 m 2.722,7.709 c -0.529,0.455 -1.288,0.682 -2.268,0.682 -0.379,0 -0.718,-0.021 -1.021,-0.068 v -4.804 c 0.346,-0.079 0.688,-0.114 1.021,-0.114 2.04,0 3.061,0.794 3.061,2.38 0,0.827 -0.264,1.474 -0.793,1.924"
         clip-path="url(#b)"
         inkscape:connector-curvature="0" />
      <path
         id="path1397"
         d="m 69.733,9.832 h 4.987 v 16.55 h -4.987 z"
         inkscape:connector-curvature="0" />
      <path
         id="path1405"
         d="m 86.441,26.381 h 4.648 l -1.63,-4.536 c -0.272,-0.734 -0.561,-1.307 -0.863,-1.708 -0.3,-0.398 -0.682,-0.729 -1.135,-0.986 v -0.045 c 0.938,-0.348 1.704,-0.932 2.295,-1.744 0.588,-0.819 0.885,-1.704 0.885,-2.654 0,-3.401 -2.269,-5.104 -6.805,-5.104 -1.967,0 -3.933,0.114 -5.897,0.342 v 16.435 h 4.423 v -5.778 h 1.019 c 0.423,0 0.765,0.114 1.022,0.337 0.257,0.229 0.467,0.603 0.634,1.136 z M 83.61,17.31 h -1.248 v -4.188 c 0.344,-0.078 0.761,-0.112 1.248,-0.112 1.658,0 2.494,0.717 2.494,2.153 0,0.662 -0.225,1.186 -0.669,1.574 -0.449,0.383 -1.058,0.573 -1.825,0.573"
         clip-path="url(#d)"
         inkscape:connector-curvature="0" />
      <path
         id="path1407"
         d="m 97.507,23.208 h 4.603 l 0.772,3.174 h 4.806 L 102.247,9.829 h -4.76 l -5.441,16.553 h 4.714 z m 2.29,-9.523 h 0.046 l 1.474,6.125 h -2.993 z m 4.602,-9.3 h -4.988 l -2.267,4.088 h 3.626 m 11.093,17.909 h 4.625 v -12.81 h 4.487 V 9.832 H 107.37 v 3.74 h 4.493"
         inkscape:connector-curvature="0" />
      <path
         id="path1415"
         d="m 128.277,23.097 c -0.756,0 -1.586,-0.152 -2.482,-0.458 -0.898,-0.302 -1.734,-0.717 -2.506,-1.24 l -1.021,3.508 c 0.668,0.486 1.555,0.893 2.668,1.215 1.109,0.327 2.148,0.486 3.117,0.486 2.309,0 4.041,-0.43 5.189,-1.301 1.148,-0.87 1.725,-2.133 1.725,-3.798 0,-1.377 -0.484,-2.506 -1.455,-3.39 -0.965,-0.885 -2.635,-1.644 -5.008,-2.278 -0.982,-0.27 -1.475,-0.726 -1.475,-1.36 0,-0.411 0.184,-0.735 0.547,-0.989 0.365,-0.249 0.898,-0.371 1.605,-0.371 1.574,0 3.125,0.38 4.65,1.13 l 0.793,-3.51 c -1.541,-0.758 -3.426,-1.138 -5.666,-1.138 -2.088,0 -3.705,0.442 -4.854,1.316 -1.15,0.877 -1.723,2.064 -1.723,3.562 0,1.36 0.467,2.487 1.406,3.379 0.936,0.891 2.508,1.653 4.715,2.288 1.211,0.348 1.814,0.837 1.814,1.475 0.002,0.98 -0.679,1.474 -2.039,1.474"
         clip-path="url(#f)"
         inkscape:connector-curvature="0" />
      <path
         id="path1417"
         d="m 151.451,9.832 h -5.215 l -4.265,7.029 h -0.043 V 9.832 h -4.537 v 16.55 h 4.537 v -7.708 h 0.043 l 4.492,7.708 h 5.213 l -5.44,-8.616 M 164.762,4.385 h -4.991 l -2.269,4.088 h 3.631 m 1.474,1.359 h -4.76 l -5.445,16.55 h 4.715 l 0.75,-3.174 h 4.602 l 0.771,3.174 h 4.809 z m -3.925,9.976 1.475,-6.125 h 0.045 l 1.475,6.125 z"
         inkscape:connector-curvature="0" />
      <g
         id="g1427">
        <defs
           id="defs1420">
          <path
             d="M 2.716,4.385 H 168.049 V 51.1 H 2.716 Z"
             id="path1461"
             inkscape:connector-curvature="0" />
        </defs>
        <clipPath
           id="h">
          <use
             id="use1422"
             overflow="visible"
             xlink:href="#g"
             style="overflow:visible"
             x="0"
             y="0"
             width="100%"
             height="100%" />
        </clipPath>
        <path
           id="path1425"
           d="m 60.617,38.221 c -0.982,-0.27 -1.476,-0.726 -1.476,-1.36 0,-0.407 0.184,-0.733 0.545,-0.987 0.363,-0.249 0.901,-0.372 1.608,-0.372 1.575,0 3.122,0.378 4.651,1.129 l 0.792,-3.508 c -1.541,-0.76 -3.43,-1.14 -5.667,-1.14 -2.085,0 -3.707,0.442 -4.851,1.319 -1.151,0.876 -1.724,2.062 -1.724,3.559 0,1.36 0.467,2.487 1.406,3.38 0.937,0.892 2.509,1.652 4.716,2.287 1.207,0.349 1.812,0.839 1.812,1.474 0,0.986 -0.678,1.476 -2.038,1.476 -0.756,0 -1.583,-0.148 -2.483,-0.456 -0.9,-0.304 -1.735,-0.715 -2.507,-1.242 l -1.019,3.509 c 0.665,0.486 1.553,0.891 2.665,1.215 1.111,0.327 2.149,0.489 3.118,0.489 2.31,0 4.042,-0.432 5.19,-1.303 1.15,-0.871 1.726,-2.135 1.726,-3.798 0,-1.375 -0.485,-2.507 -1.454,-3.392 -0.966,-0.888 -2.638,-1.642 -5.01,-2.279"
           clip-path="url(#h)"
           inkscape:connector-curvature="0" />
      </g>
      <path
         id="path1429"
         d="m 68.483,35.953 h 4.495 v 12.81 h 4.625 v -12.81 h 4.486 v -3.74 H 68.483"
         inkscape:connector-curvature="0" />
      <g
         id="g1439">
        <defs
           id="defs1432">
          <path
             d="M 2.716,4.385 H 168.049 V 51.1 H 2.716 Z"
             id="path1469"
             inkscape:connector-curvature="0" />
        </defs>
        <clipPath
           id="j">
          <use
             id="use1434"
             overflow="visible"
             xlink:href="#i"
             style="overflow:visible"
             x="0"
             y="0"
             width="100%"
             height="100%" />
        </clipPath>
        <path
           id="path1437"
           d="m 95.178,42.517 c -0.304,-0.398 -0.684,-0.73 -1.141,-0.984 v -0.046 c 0.939,-0.345 1.703,-0.93 2.291,-1.745 0.592,-0.816 0.885,-1.701 0.885,-2.652 0,-3.403 -2.266,-5.104 -6.801,-5.104 -1.967,0 -3.929,0.113 -5.896,0.345 v 16.435 h 4.422 v -5.779 h 1.021 c 0.422,0 0.765,0.112 1.02,0.338 0.257,0.227 0.469,0.604 0.636,1.134 l 1.405,4.308 h 4.646 L 96.035,44.23 c -0.27,-0.741 -0.559,-1.312 -0.857,-1.713 m -3.17,-3.4 c -0.44,0.388 -1.051,0.576 -1.824,0.576 h -1.246 v -4.192 c 0.347,-0.08 0.762,-0.113 1.246,-0.113 1.662,0 2.497,0.717 2.497,2.152 0,0.664 -0.224,1.192 -0.673,1.577"
           clip-path="url(#j)"
           inkscape:connector-curvature="0" />
      </g>
      <path
         id="path1441"
         d="m 104.287,32.213 -5.439,16.55 h 4.713 l 0.748,-3.174 h 4.605 l 0.772,3.174 h 4.8 l -5.438,-16.55 z m 0.838,9.975 1.475,-6.123 h 0.047 l 1.475,6.123 z m 20.637,-0.906 h -0.049 l -4.942,-9.071 h -4.421 v 16.553 h 4.421 v -9.073 h 0.047 l 4.944,9.073 h 4.42 V 32.211 h -4.42 m 11.722,0.002 -5.443,16.55 h 4.717 l 0.75,-3.174 h 4.596 l 0.773,3.174 h 4.812 l -5.441,-16.55 z m 0.838,9.975 1.473,-6.123 h 0.043 l 1.475,6.123 z"
         inkscape:connector-curvature="0" />
    </g>
    <g
       id="g2179"
       transform="translate(0,2.1166667)">
      <text
         id="text931"
         y="110.28716"
         x="11.942331"
         style="font-style:normal;font-variant:normal;font-weight:bold;font-stretch:normal;font-size:4.23333311px;line-height:1.25;font-family:'Bebas Neue';-inkscape-font-specification:'Bebas Neue Bold';letter-spacing:0px;word-spacing:0px;fill:#000000;fill-opacity:1;stroke:none;stroke-width:0.26458332"
         xml:space="preserve"><tspan
           style="font-style:normal;font-variant:normal;font-weight:bold;font-stretch:normal;font-size:4.58611107px;font-family:'Bebas Neue';-inkscape-font-specification:'Bebas Neue, Bold';font-variant-ligatures:normal;font-variant-caps:normal;font-variant-numeric:normal;font-feature-settings:normal;text-align:start;writing-mode:lr-tb;text-anchor:start;stroke-width:0.26458332"
           y="110.28716"
           x="11.942331"
           id="tspan929"
           sodipodi:role="line">Dukla</tspan></text>
      <flowRoot
         transform="matrix(0.26458333,0,0,0.26458333,0.07137491,34.083276)"
         style="font-style:normal;font-variant:normal;font-weight:bold;font-stretch:normal;font-size:14.66666698px;line-height:1;font-family:'Bebas Neue';-inkscape-font-specification:'Bebas Neue Bold';letter-spacing:0px;word-spacing:0px;fill:#000000;fill-opacity:1;stroke:none"
         id="flowRoot933"
         xml:space="preserve"><flowRegion
           id="flowRegion935"><rect
             y="295.80777"
             x="55.795277"
             height="184.72058"
             width="446.86694"
             id="rect937" /></flowRegion><flowPara
           id="flowPara947"
           style="font-style:normal;font-variant:normal;font-weight:300;font-stretch:normal;font-size:13.33333397px;font-family:'Roboto Condensed';-inkscape-font-specification:'Roboto Condensed, Light';font-variant-ligatures:normal;font-variant-caps:normal;font-variant-numeric:normal;font-feature-settings:normal;text-align:justify;writing-mode:lr-tb;text-anchor:start"><flowSpan
   id="flowSpan1557"
   style="font-weight:bold">Protihlukové stěny v Lesoparku Dukla</flowSpan>. Pro umocnění pocitu „jsem v přírodě“ budeme prosazovat vybudování protihlukových stěn okolo silnice I/37 po celé délce Lesoparku Dukla.</flowPara><flowPara
           id="flowPara977"
           style="font-style:normal;font-variant:normal;font-weight:300;font-stretch:normal;font-size:13.33333397px;font-family:'Roboto Condensed';-inkscape-font-specification:'Roboto Condensed, Light';font-variant-ligatures:normal;font-variant-caps:normal;font-variant-numeric:normal;font-feature-settings:normal;text-align:justify;writing-mode:lr-tb;text-anchor:start"><flowSpan
   id="flowSpan1559"
   style="font-weight:bold">Bezpečný přechod k vlakové zastávce Pardubice, závodiště</flowSpan>. Vybudujeme bezpečný přechod na vlakovou zastávku na závodišti.</flowPara><flowPara
           id="flowPara955"
           style="font-style:normal;font-variant:normal;font-weight:300;font-stretch:normal;font-size:13.33333397px;font-family:'Roboto Condensed';-inkscape-font-specification:'Roboto Condensed, Light';font-variant-ligatures:normal;font-variant-caps:normal;font-variant-numeric:normal;font-feature-settings:normal;text-align:justify;writing-mode:lr-tb;text-anchor:start"><flowSpan
   id="flowSpan1561"
   style="font-weight:bold">Oživení kina Dukla</flowSpan>. Kino Dukla je v soukromých rukách, ale bohužel strádá. Prozkoumáme možnosti, jak tuto situaci změnit.</flowPara><flowPara
           id="flowPara959"
           style="font-style:normal;font-variant:normal;font-weight:300;font-stretch:normal;font-size:13.33333397px;font-family:'Roboto Condensed';-inkscape-font-specification:'Roboto Condensed, Light';font-variant-ligatures:normal;font-variant-caps:normal;font-variant-numeric:normal;font-feature-settings:normal;text-align:justify;writing-mode:lr-tb;text-anchor:start"><flowSpan
   id="flowSpan1563"
   style="font-weight:bold">Oživení chátrajícího objektu „U Bobra“</flowSpan>. Zasadíme se o smysluplné využití chátrajícího objektu bývalé hospody „U Bobra“.</flowPara><flowPara
           id="flowPara961"
           style="font-style:normal;font-variant:normal;font-weight:300;font-stretch:normal;font-size:13.33333397px;font-family:'Roboto Condensed';-inkscape-font-specification:'Roboto Condensed, Light';font-variant-ligatures:normal;font-variant-caps:normal;font-variant-numeric:normal;font-feature-settings:normal;text-align:justify;writing-mode:lr-tb;text-anchor:start"><flowSpan
   id="flowSpan1565"
   style="font-weight:bold">Vyhrazený prostor pro grilování</flowSpan>. Prosadíme, aby byl v rámci dukelského lesoparku vytyčen prostor, kde je možné používat vlastní gril.</flowPara></flowRoot>      <g
         transform="translate(2.0045215)"
         id="g2037">
        <circle
           style="fill:#000000;fill-opacity:1;stroke:none;stroke-width:0.08515695;stroke-linecap:square;stroke-linejoin:miter;stroke-miterlimit:4;stroke-dasharray:none;stroke-opacity:1"
           id="path1525"
           cx="10.522606"
           cy="114.00011"
           r="0.5" />
        <circle
           r="0.5"
           cy="125.66547"
           cx="10.522606"
           id="circle1567"
           style="fill:#000000;fill-opacity:1;stroke:none;stroke-width:0.08515695;stroke-linecap:square;stroke-linejoin:miter;stroke-miterlimit:4;stroke-dasharray:none;stroke-opacity:1" />
        <circle
           style="fill:#000000;fill-opacity:1;stroke:none;stroke-width:0.08515695;stroke-linecap:square;stroke-linejoin:miter;stroke-miterlimit:4;stroke-dasharray:none;stroke-opacity:1"
           id="circle1569"
           cx="10.522606"
           cy="133.41629"
           r="0.5" />
        <circle
           r="0.5"
           cy="141.35611"
           cx="10.522606"
           id="circle1571"
           style="fill:#000000;fill-opacity:1;stroke:none;stroke-width:0.08515695;stroke-linecap:square;stroke-linejoin:miter;stroke-miterlimit:4;stroke-dasharray:none;stroke-opacity:1" />
        <circle
           style="fill:#000000;fill-opacity:1;stroke:none;stroke-width:0.08515695;stroke-linecap:square;stroke-linejoin:miter;stroke-miterlimit:4;stroke-dasharray:none;stroke-opacity:1"
           id="circle1573"
           cx="10.522606"
           cy="149.0401"
           r="0.5" />
      </g>
    </g>
    <g
       id="g2193"
       transform="translate(0,1.4556689)">
      <text
         xml:space="preserve"
         style="font-style:normal;font-variant:normal;font-weight:bold;font-stretch:normal;font-size:4.23333311px;line-height:1.25;font-family:'Bebas Neue';-inkscape-font-specification:'Bebas Neue Bold';letter-spacing:0px;word-spacing:0px;fill:#000000;fill-opacity:1;stroke:none;stroke-width:0.26458332"
         x="12.079915"
         y="163.19237"
         id="text997"><tspan
           sodipodi:role="line"
           id="tspan995"
           x="12.079915"
           y="163.19237"
           style="font-style:normal;font-variant:normal;font-weight:bold;font-stretch:normal;font-size:4.58611107px;font-family:'Bebas Neue';-inkscape-font-specification:'Bebas Neue, Bold';font-variant-ligatures:normal;font-variant-caps:normal;font-variant-numeric:normal;font-feature-settings:normal;text-align:start;writing-mode:lr-tb;text-anchor:start;stroke-width:0.26458332">Jesničánky</tspan></text>
      <flowRoot
         xml:space="preserve"
         id="flowRoot1023"
         style="font-style:normal;font-variant:normal;font-weight:normal;font-stretch:normal;font-size:14.66666698px;line-height:1;font-family:'Roboto Condensed';-inkscape-font-specification:'Roboto Condensed, Normal';font-variant-ligatures:normal;font-variant-caps:normal;font-variant-numeric:normal;font-feature-settings:normal;text-align:start;letter-spacing:0px;word-spacing:0px;writing-mode:lr-tb;text-anchor:start;fill:#000000;fill-opacity:1;stroke:none"
         transform="matrix(0.26458333,0,0,0.26458333,-0.28519247,87.997814)"><flowRegion
           style="font-style:normal;font-variant:normal;font-weight:normal;font-stretch:normal;font-size:10.66666698px;font-family:'Roboto Condensed';-inkscape-font-specification:'Roboto Condensed, Normal';font-variant-ligatures:normal;font-variant-caps:normal;font-variant-numeric:normal;font-feature-settings:normal;text-align:start;writing-mode:lr-tb;text-anchor:start"
           id="flowRegion1001"><rect
             style="font-style:normal;font-variant:normal;font-weight:normal;font-stretch:normal;font-size:10.66666698px;font-family:'Roboto Condensed';-inkscape-font-specification:'Roboto Condensed, Normal';font-variant-ligatures:normal;font-variant-caps:normal;font-variant-numeric:normal;font-feature-settings:normal;text-align:start;writing-mode:lr-tb;text-anchor:start"
             id="rect999"
             width="446.98959"
             height="96.02964"
             x="56.692913"
             y="292.27225" /></flowRegion><flowPara
           style="font-style:normal;font-variant:normal;font-weight:300;font-stretch:normal;font-size:13.33333397px;font-family:'Roboto Condensed';-inkscape-font-specification:'Roboto Condensed, Light';font-variant-ligatures:normal;font-variant-caps:normal;font-variant-numeric:normal;font-feature-settings:normal;text-align:justify;writing-mode:lr-tb;text-anchor:start"
           id="flowPara1049"><flowSpan
   style="font-weight:bold"
   id="flowSpan1627">Přechody pro pěší na Nemošické</flowSpan>. Vybudujeme chybějící přechody pro pěší v obydlené části ul. Nemošická.</flowPara><flowPara
           style="font-style:normal;font-variant:normal;font-weight:300;font-stretch:normal;font-size:13.33333397px;font-family:'Roboto Condensed';-inkscape-font-specification:'Roboto Condensed, Light';font-variant-ligatures:normal;font-variant-caps:normal;font-variant-numeric:normal;font-feature-settings:normal;text-align:justify;writing-mode:lr-tb;text-anchor:start"
           id="flowPara1051"><flowSpan
   style="font-weight:bold"
   id="flowSpan1629">Červeňák</flowSpan>. Získáme bývalý vojenský prostor na Chrudimce do majetku města, aby zde mohl vzniknout přírodě blízký park, který bude sloužit pro každodenní rekreaci i jako pěší a cyklistická spojnice mezi Pardubičkami a Višňovkou.</flowPara></flowRoot>      <g
         transform="translate(2.0045215)"
         id="g2144">
        <circle
           r="0.5"
           cy="167.07301"
           cx="10.522606"
           id="circle1731"
           style="fill:#000000;fill-opacity:1;stroke:none;stroke-width:0.08515695;stroke-linecap:square;stroke-linejoin:miter;stroke-miterlimit:4;stroke-dasharray:none;stroke-opacity:1" />
        <circle
           style="fill:#000000;fill-opacity:1;stroke:none;stroke-width:0.08515695;stroke-linecap:square;stroke-linejoin:miter;stroke-miterlimit:4;stroke-dasharray:none;stroke-opacity:1"
           id="circle1733"
           cx="10.522606"
           cy="174.82382"
           r="0.5" />
      </g>
    </g>
    <g
       id="g2210"
       transform="translate(0,0.79464404)">
      <text
         id="text1059"
         y="192.88774"
         x="12.075329"
         style="font-style:normal;font-variant:normal;font-weight:bold;font-stretch:normal;font-size:4.23333311px;line-height:1.25;font-family:'Bebas Neue';-inkscape-font-specification:'Bebas Neue, Bold';font-variant-ligatures:normal;font-variant-caps:normal;font-variant-numeric:normal;font-feature-settings:normal;text-align:start;letter-spacing:0px;word-spacing:0px;writing-mode:lr-tb;text-anchor:start;fill:#000000;fill-opacity:1;stroke:none;stroke-width:0.26458332"
         xml:space="preserve"><tspan
           style="font-style:normal;font-variant:normal;font-weight:bold;font-stretch:normal;font-size:4.58611107px;font-family:'Bebas Neue';-inkscape-font-specification:'Bebas Neue, Bold';font-variant-ligatures:normal;font-variant-caps:normal;font-variant-numeric:normal;font-feature-settings:normal;text-align:start;writing-mode:lr-tb;text-anchor:start"
           y="192.88774"
           x="12.075329"
           id="tspan1075"
           sodipodi:role="line">Višňovka</tspan></text>
      <flowRoot
         transform="matrix(0.26458333,0,0,0.26458333,-0.02508776,117.75024)"
         style="font-style:normal;font-variant:normal;font-weight:normal;font-stretch:normal;font-size:14.66666698px;line-height:1;font-family:'Roboto Condensed';-inkscape-font-specification:'Roboto Condensed, Normal';font-variant-ligatures:normal;font-variant-caps:normal;font-variant-numeric:normal;font-feature-settings:normal;text-align:start;letter-spacing:0px;word-spacing:0px;writing-mode:lr-tb;text-anchor:start;fill:#000000;fill-opacity:1;stroke:none"
         id="flowRoot1073"
         xml:space="preserve"><flowRegion
           id="flowRegion1063"
           style="font-style:normal;font-variant:normal;font-weight:normal;font-stretch:normal;font-size:10.66666698px;font-family:'Roboto Condensed';-inkscape-font-specification:'Roboto Condensed, Normal';font-variant-ligatures:normal;font-variant-caps:normal;font-variant-numeric:normal;font-feature-settings:normal;text-align:start;writing-mode:lr-tb;text-anchor:start"><rect
             y="292.27225"
             x="56.692913"
             height="108.98831"
             width="446.07227"
             id="rect1061"
             style="font-style:normal;font-variant:normal;font-weight:normal;font-stretch:normal;font-size:10.66666698px;font-family:'Roboto Condensed';-inkscape-font-specification:'Roboto Condensed, Normal';font-variant-ligatures:normal;font-variant-caps:normal;font-variant-numeric:normal;font-feature-settings:normal;text-align:start;writing-mode:lr-tb;text-anchor:start" /></flowRegion><flowPara
           style="font-style:normal;font-variant:normal;font-weight:300;font-stretch:normal;font-size:13.33333397px;font-family:'Roboto Condensed';-inkscape-font-specification:'Roboto Condensed, Light';font-variant-ligatures:normal;font-variant-caps:normal;font-variant-numeric:normal;font-feature-settings:normal;text-align:justify;writing-mode:lr-tb;text-anchor:start"
           id="flowPara1077"><flowSpan
   id="flowSpan1710"
   style="font-weight:bold">Brownfield Kasárna T. G. Masaryka</flowSpan>. Chceme, aby byl prostor bývalých kasáren využit jako oblast pro novou čtvrť.</flowPara><flowPara
           style="font-style:normal;font-variant:normal;font-weight:300;font-stretch:normal;font-size:13.33333397px;font-family:'Roboto Condensed';-inkscape-font-specification:'Roboto Condensed, Light';font-variant-ligatures:normal;font-variant-caps:normal;font-variant-numeric:normal;font-feature-settings:normal;text-align:justify;writing-mode:lr-tb;text-anchor:start"
           id="flowPara1081"><flowSpan
   id="flowSpan1712"
   style="font-weight:bold">Brownfield S. K. Neumanna</flowSpan>. Pohlídáme, aby brownfield na S. K. Neumanna byl vhodně využit, nejlépe pro bydlení.</flowPara><flowPara
           style="font-style:normal;font-variant:normal;font-weight:300;font-stretch:normal;font-size:13.33333397px;font-family:'Roboto Condensed';-inkscape-font-specification:'Roboto Condensed, Light';font-variant-ligatures:normal;font-variant-caps:normal;font-variant-numeric:normal;font-feature-settings:normal;text-align:justify;writing-mode:lr-tb;text-anchor:start"
           id="flowPara1079"><flowSpan
   id="flowSpan1714"
   style="font-weight:bold">Železniční stanice Pardubice-centrum</flowSpan>. Prosadíme železniční stanici Pardubice-centrum v prostoru za Kávovinami, která zkrátí cestu z centra města do Hradce Králové nebo Chrudimi.</flowPara></flowRoot>      <g
         transform="translate(2.0045215)"
         id="g2149">
        <circle
           r="0.5"
           cy="196.82959"
           cx="10.522606"
           id="circle1735"
           style="fill:#000000;fill-opacity:1;stroke:none;stroke-width:0.08515695;stroke-linecap:square;stroke-linejoin:miter;stroke-miterlimit:4;stroke-dasharray:none;stroke-opacity:1" />
        <circle
           style="fill:#000000;fill-opacity:1;stroke:none;stroke-width:0.08515695;stroke-linecap:square;stroke-linejoin:miter;stroke-miterlimit:4;stroke-dasharray:none;stroke-opacity:1"
           id="circle1737"
           cx="10.522606"
           cy="204.5804"
           r="0.5" />
        <circle
           r="0.5"
           cy="212.37035"
           cx="10.522606"
           id="circle1739"
           style="fill:#000000;fill-opacity:1;stroke:none;stroke-width:0.08515695;stroke-linecap:square;stroke-linejoin:miter;stroke-miterlimit:4;stroke-dasharray:none;stroke-opacity:1" />
      </g>
    </g>
    <g
       id="g1189"
       transform="translate(2.1181897,9.5087915)">
      <text
         xml:space="preserve"
         style="font-style:normal;font-variant:normal;font-weight:bold;font-stretch:normal;font-size:4.23333311px;line-height:1.25;font-family:'Bebas Neue';-inkscape-font-specification:'Bebas Neue, Bold';font-variant-ligatures:normal;font-variant-caps:normal;font-variant-numeric:normal;font-feature-settings:normal;text-align:start;letter-spacing:0px;word-spacing:0px;writing-mode:lr-tb;text-anchor:start;fill:#000000;fill-opacity:1;stroke:none;stroke-width:0.26458332"
         x="9.8287277"
         y="220.3078"
         id="text1091"><tspan
           sodipodi:role="line"
           id="tspan1089"
           x="9.8287277"
           y="220.3078"
           style="font-style:normal;font-variant:normal;font-weight:bold;font-stretch:normal;font-size:4.58611107px;font-family:'Bebas Neue';-inkscape-font-specification:'Bebas Neue, Bold';font-variant-ligatures:normal;font-variant-caps:normal;font-variant-numeric:normal;font-feature-settings:normal;text-align:start;writing-mode:lr-tb;text-anchor:start">Něco navíc</tspan></text>
    </g>
    <flowRoot
       transform="matrix(0.26458333,0,0,0.26458333,-0.02508776,154.52844)"
       style="font-style:normal;font-variant:normal;font-weight:normal;font-stretch:normal;font-size:14.66666698px;line-height:1;font-family:'Roboto Condensed';-inkscape-font-specification:'Roboto Condensed, Normal';font-variant-ligatures:normal;font-variant-caps:normal;font-variant-numeric:normal;font-feature-settings:normal;text-align:start;letter-spacing:0px;word-spacing:0px;writing-mode:lr-tb;text-anchor:start;fill:#000000;fill-opacity:1;stroke:none"
       id="flowRoot1109"
       xml:space="preserve"><flowRegion
         id="flowRegion1095"
         style="font-style:normal;font-variant:normal;font-weight:normal;font-stretch:normal;font-size:10.66666698px;font-family:'Roboto Condensed';-inkscape-font-specification:'Roboto Condensed, Normal';font-variant-ligatures:normal;font-variant-caps:normal;font-variant-numeric:normal;font-feature-settings:normal;text-align:start;writing-mode:lr-tb;text-anchor:start"><rect
           y="292.27225"
           x="56.692913"
           height="196.04022"
           width="445.86298"
           id="rect1093"
           style="font-style:normal;font-variant:normal;font-weight:normal;font-stretch:normal;font-size:10.66666698px;font-family:'Roboto Condensed';-inkscape-font-specification:'Roboto Condensed, Normal';font-variant-ligatures:normal;font-variant-caps:normal;font-variant-numeric:normal;font-feature-settings:normal;text-align:start;writing-mode:lr-tb;text-anchor:start" /></flowRegion><flowPara
         id="flowPara1111"
         style="font-style:normal;font-variant:normal;font-weight:300;font-stretch:normal;font-size:13.33333397px;font-family:'Roboto Condensed';-inkscape-font-specification:'Roboto Condensed, Light';font-variant-ligatures:normal;font-variant-caps:normal;font-variant-numeric:normal;font-feature-settings:normal;text-align:justify;writing-mode:lr-tb;text-anchor:start"><flowSpan
   style="font-weight:bold"
   id="flowSpan1716">Zpravodaj</flowSpan>. Chceme, aby zpravodaj nebyl marketingovou přehlídkou stávajícího vedení radnice. Budeme prosazovat, aby byl platformou pro veřejnou diskusi.</flowPara><flowPara
         id="flowPara1113"
         style="font-style:normal;font-variant:normal;font-weight:300;font-stretch:normal;font-size:13.33333397px;font-family:'Roboto Condensed';-inkscape-font-specification:'Roboto Condensed, Light';font-variant-ligatures:normal;font-variant-caps:normal;font-variant-numeric:normal;font-feature-settings:normal;text-align:justify;writing-mode:lr-tb;text-anchor:start"><flowSpan
   style="font-weight:bold"
   id="flowSpan1718">Veřejné události ve strojově čitelné podobě</flowSpan>. Zajistíme, aby veškeré události, které se v městském obvodě konají, byly dostupné ve strojově čitelné podobě. To umožní jejich zobrazení v aplikacích třetích stran.</flowPara><flowPara
         id="flowPara1119"
         style="font-style:normal;font-variant:normal;font-weight:300;font-stretch:normal;font-size:13.33333397px;font-family:'Roboto Condensed';-inkscape-font-specification:'Roboto Condensed, Light';font-variant-ligatures:normal;font-variant-caps:normal;font-variant-numeric:normal;font-feature-settings:normal;text-align:justify;writing-mode:lr-tb;text-anchor:start"><flowSpan
   style="font-weight:bold"
   id="flowSpan1720">Klub pro seniory</flowSpan>. Podpoříme vznik klubu pro seniory na území městského obvodu Pardubice V.</flowPara><flowPara
         id="flowPara1123"
         style="font-style:normal;font-variant:normal;font-weight:300;font-stretch:normal;font-size:13.33333397px;font-family:'Roboto Condensed';-inkscape-font-specification:'Roboto Condensed, Light';font-variant-ligatures:normal;font-variant-caps:normal;font-variant-numeric:normal;font-feature-settings:normal;text-align:justify;writing-mode:lr-tb;text-anchor:start"><flowSpan
   style="font-weight:bold"
   id="flowSpan1722">Komunitní zahrady</flowSpan>. Zasadíme se o vznik komunitních zahrad na území Dukly a Višňovky.</flowPara><flowPara
         id="flowPara1127"
         style="font-style:normal;font-variant:normal;font-weight:300;font-stretch:normal;font-size:13.33333397px;font-family:'Roboto Condensed';-inkscape-font-specification:'Roboto Condensed, Light';font-variant-ligatures:normal;font-variant-caps:normal;font-variant-numeric:normal;font-feature-settings:normal;text-align:justify;writing-mode:lr-tb;text-anchor:start"><flowSpan
   style="font-weight:bold"
   id="flowSpan2279">Zapojení veřejnosti</flowSpan>. Budeme důsledně zapojovat veřejnost do všech rozhodnutí, které se jí týkají.</flowPara><flowPara
         id="flowPara1131"
         style="font-style:normal;font-variant:normal;font-weight:300;font-stretch:normal;font-size:13.33333397px;font-family:'Roboto Condensed';-inkscape-font-specification:'Roboto Condensed, Light';font-variant-ligatures:normal;font-variant-caps:normal;font-variant-numeric:normal;font-feature-settings:normal;text-align:justify;writing-mode:lr-tb;text-anchor:start"><flowSpan
   style="font-weight:bold"
   id="flowSpan1724">Práce s komunitami</flowSpan>. Budeme pořádat setkání, kde se občané budou moci seznámit se svými sousedy i spolurozhodovat o rozvoji svého okolí.</flowPara></flowRoot>    <g
       id="g1090">
      <circle
         r="0.5"
         cy="233.49562"
         cx="12.527127"
         id="circle1741"
         style="fill:#000000;fill-opacity:1;stroke:none;stroke-width:0.08515695;stroke-linecap:square;stroke-linejoin:miter;stroke-miterlimit:4;stroke-dasharray:none;stroke-opacity:1" />
      <circle
         style="fill:#000000;fill-opacity:1;stroke:none;stroke-width:0.08515695;stroke-linecap:square;stroke-linejoin:miter;stroke-miterlimit:4;stroke-dasharray:none;stroke-opacity:1"
         id="circle1743"
         cx="12.527127"
         cy="241.4192"
         r="0.5" />
      <circle
         r="0.5"
         cy="252.87267"
         cx="12.527127"
         id="circle1745"
         style="fill:#000000;fill-opacity:1;stroke:none;stroke-width:0.08515695;stroke-linecap:square;stroke-linejoin:miter;stroke-miterlimit:4;stroke-dasharray:none;stroke-opacity:1" />
      <circle
         style="fill:#000000;fill-opacity:1;stroke:none;stroke-width:0.08515695;stroke-linecap:square;stroke-linejoin:miter;stroke-miterlimit:4;stroke-dasharray:none;stroke-opacity:1"
         id="circle1747"
         cx="12.527127"
         cy="260.7963"
         r="0.5" />
      <circle
         r="0.5"
         cy="275.91879"
         cx="12.527127"
         id="circle1749"
         style="fill:#000000;fill-opacity:1;stroke:none;stroke-width:0.08515695;stroke-linecap:square;stroke-linejoin:miter;stroke-miterlimit:4;stroke-dasharray:none;stroke-opacity:1" />
      <circle
         r="0.5"
         cy="268.41348"
         cx="12.527127"
         id="circle2286"
         style="fill:#000000;fill-opacity:1;stroke:none;stroke-width:0.08515695;stroke-linecap:square;stroke-linejoin:miter;stroke-miterlimit:4;stroke-dasharray:none;stroke-opacity:1" />
    </g>
  </g>
  <style
     id="style1366">
    .st0{fill:none}
  </style>
</svg>
