<?xml version="1.0" encoding="UTF-8" standalone="no"?>
<!-- Created with Inkscape (http://www.inkscape.org/) -->

<svg
   xmlns:dc="http://purl.org/dc/elements/1.1/"
   xmlns:cc="http://creativecommons.org/ns#"
   xmlns:rdf="http://www.w3.org/1999/02/22-rdf-syntax-ns#"
   xmlns:svg="http://www.w3.org/2000/svg"
   xmlns="http://www.w3.org/2000/svg"
   xmlns:sodipodi="http://sodipodi.sourceforge.net/DTD/sodipodi-0.dtd"
   xmlns:inkscape="http://www.inkscape.org/namespaces/inkscape"
   version="1.1"
   id="svg10"
   xml:space="preserve"
   width="793.70135"
   height="1122.52"
   viewBox="0 0 793.70135 1122.52"
   sodipodi:docname="letaky-pardubice2_2.svg"
   inkscape:version="0.92.3 (2405546, 2018-03-11)"><metadata
     id="metadata16"><rdf:RDF><cc:Work
         rdf:about=""><dc:format>image/svg+xml</dc:format><dc:type
           rdf:resource="http://purl.org/dc/dcmitype/StillImage" /><dc:title /></cc:Work></rdf:RDF></metadata><defs
     id="defs14"><clipPath
       clipPathUnits="userSpaceOnUse"
       id="clipPath26"><path
         d="M 0,0 H 595.276 V 841.89 H 0 Z"
         id="path24"
         inkscape:connector-curvature="0" /></clipPath><clipPath
       clipPathUnits="userSpaceOnUse"
       id="clipPath48"><path
         d="M 0,0 H 595.276 V 841.89 H 0 Z"
         id="path46"
         inkscape:connector-curvature="0" /></clipPath><clipPath
       clipPathUnits="userSpaceOnUse"
       id="clipPath68"><path
         d="M 0,0 H 595.276 V 841.89 H 0 Z"
         id="path66"
         inkscape:connector-curvature="0" /></clipPath><clipPath
       clipPathUnits="userSpaceOnUse"
       id="clipPath88"><path
         d="M 0,0 H 595.276 V 841.89 H 0 Z"
         id="path86"
         inkscape:connector-curvature="0" /></clipPath><clipPath
       clipPathUnits="userSpaceOnUse"
       id="clipPath104"><path
         d="M 0,0 H 595.276 V 841.89 H 0 Z"
         id="path102"
         inkscape:connector-curvature="0" /></clipPath><clipPath
       clipPathUnits="userSpaceOnUse"
       id="clipPath140"><path
         d="M 0,0 H 595.276 V 841.89 H 0 Z"
         id="path138"
         inkscape:connector-curvature="0" /></clipPath><clipPath
       clipPathUnits="userSpaceOnUse"
       id="clipPath184"><path
         d="M 0,0 H 595.276 V 841.89 H 0 Z"
         id="path182"
         inkscape:connector-curvature="0" /></clipPath><clipPath
       clipPathUnits="userSpaceOnUse"
       id="clipPath216"><path
         d="M 0,0 H 595.276 V 841.89 H 0 Z"
         id="path214"
         inkscape:connector-curvature="0" /></clipPath><clipPath
       clipPathUnits="userSpaceOnUse"
       id="clipPath312"><path
         d="M 0,0 H 595.276 V 841.89 H 0 Z"
         id="path310"
         inkscape:connector-curvature="0" /></clipPath></defs><sodipodi:namedview
     pagecolor="#ffffff"
     bordercolor="#666666"
     borderopacity="1"
     objecttolerance="10"
     gridtolerance="10"
     guidetolerance="10"
     inkscape:pageopacity="0"
     inkscape:pageshadow="2"
     inkscape:window-width="1920"
     inkscape:window-height="1017"
     id="namedview12"
     showgrid="false"
     inkscape:zoom="0.7554431"
     inkscape:cx="313.15553"
     inkscape:cy="493.51571"
     inkscape:window-x="-8"
     inkscape:window-y="-8"
     inkscape:window-maximized="1"
     inkscape:current-layer="g18" /><g
     id="g18"
     inkscape:groupmode="layer"
     inkscape:label="letaky-vzor-1"
     transform="matrix(1.3333333,0,0,-1.3333333,0,1122.52)"><g
   id="g20"><g
     id="g22"
     clip-path="url(#clipPath26)"><g
       id="g28"
       transform="translate(135.222,83.3927)"><path
         d="m 0,0 c -5.603,5.608 -13.06,8.701 -20.993,8.701 -7.923,0 -15.381,-3.093 -21.002,-8.701 -5.603,-5.608 -8.696,-13.065 -8.696,-20.997 0,-7.943 3.093,-15.4 8.696,-20.998 5.621,-5.608 13.079,-8.692 21.002,-8.692 7.933,0 15.39,3.084 20.993,8.692 5.622,5.598 8.706,13.055 8.706,20.998 C 8.706,-13.065 5.622,-5.608 0,0 m -20.993,-47.869 c -14.821,0 -26.871,12.051 -26.871,26.872 0,14.815 12.05,26.87 26.871,26.87 14.816,0 26.881,-12.055 26.881,-26.87 0,-14.821 -12.065,-26.872 -26.881,-26.872"
         style="fill:#12111a;fill-opacity:1;fill-rule:nonzero;stroke:none"
         id="path30"
         inkscape:connector-curvature="0" /></g><g
       id="g32"
       transform="translate(105.2816,80.0626)"><path
         d="m 0,0 v 4.156 h -2.6 v -4.801 c -1.755,-0.541 -2.78,-1.101 -2.609,-1.447 0.579,0.161 1.508,0.232 2.609,0.166 v -24.998 c -2.647,-5.18 1.167,-13.108 1.167,-13.108 0,0 -2.87,8.512 3.511,12.535 5.864,3.691 26.088,1.959 26.012,13.369 C 28,2.04 9.346,1.945 0,0 M 8.345,-15.675 C 7.439,-19.983 2.742,-22.222 0,-24.086 v 21.761 c 4.673,-1.119 10.167,-4.711 8.345,-13.35"
         style="fill:#12111a;fill-opacity:1;fill-rule:nonzero;stroke:none"
         id="path34"
         inkscape:connector-curvature="0" /></g><g
       id="g36"
       transform="translate(165.2014,73.2885)"><path
         d="m 0,0 v -7.075 h -6.051 v 22.498 c 2.151,0.31 4.427,0.465 6.827,0.465 7.033,0 10.551,-2.534 10.551,-7.603 0,-2.751 -0.792,-4.836 -2.375,-6.252 C 7.37,0.615 5.058,-0.093 2.017,-0.093 1.21,-0.093 0.538,-0.062 0,0 M 0,4.499 C 0.413,4.437 0.879,4.406 1.397,4.406 c 1.344,0 2.378,0.311 3.103,0.931 0.724,0.621 1.086,1.5 1.086,2.638 0,2.172 -1.397,3.258 -4.189,3.258 -0.456,0 -0.921,-0.052 -1.397,-0.155 z"
         style="fill:#12111a;fill-opacity:1;fill-rule:nonzero;stroke:none"
         id="path38"
         inkscape:connector-curvature="0" /></g></g></g><path
   d="m 179.382,88.866 h 6.827 V 66.213 h -6.827 z"
   style="fill:#12111a;fill-opacity:1;fill-rule:nonzero;stroke:none"
   id="path40"
   inkscape:connector-curvature="0" /><g
   id="g42"><g
     id="g44"
     clip-path="url(#clipPath48)"><g
       id="g50"
       transform="translate(196.6664,74.1261)"><path
         d="m 0,0 v -7.913 h -6.051 v 22.498 c 2.689,0.31 5.378,0.465 8.068,0.465 6.206,0 9.31,-2.327 9.31,-6.982 0,-1.303 -0.404,-2.513 -1.211,-3.63 C 9.309,3.321 8.265,2.524 6.982,2.048 V 1.986 C 7.602,1.634 8.119,1.184 8.533,0.636 8.947,0.088 9.34,-0.693 9.713,-1.707 l 2.234,-6.206 H 5.585 L 3.662,-2.017 C 3.434,-1.293 3.145,-0.776 2.793,-0.466 2.441,-0.155 1.976,0 1.396,0 Z m 0,4.5 h 1.707 c 1.055,0 1.887,0.264 2.498,0.791 0.61,0.528 0.915,1.246 0.915,2.157 0,1.965 -1.137,2.948 -3.413,2.948 C 1.045,10.396 0.475,10.344 0,10.24 Z"
         style="fill:#12111a;fill-opacity:1;fill-rule:nonzero;stroke:none"
         id="path52"
         inkscape:connector-curvature="0" /></g></g></g><g
   id="g54"
   transform="translate(217.3955,70.5574)"><path
     d="m 0,0 -1.024,-4.344 h -6.454 l 7.447,22.653 H 6.485 L 13.933,-4.344 H 7.354 L 6.299,0 Z m 4.468,20.171 h -4.965 l 3.103,5.585 H 9.433 Z M 1.117,4.655 H 5.213 L 3.196,13.034 H 3.134 Z"
     style="fill:#12111a;fill-opacity:1;fill-rule:nonzero;stroke:none"
     id="path56"
     inkscape:connector-curvature="0" /></g><g
   id="g58"
   transform="translate(249.5124,88.8663)"><path
     d="m 0,0 v -5.12 h -6.144 v -17.533 h -6.331 V -5.12 h -6.144 V 0 Z"
     style="fill:#12111a;fill-opacity:1;fill-rule:nonzero;stroke:none"
     id="path60"
     inkscape:connector-curvature="0" /></g><g
   id="g62"><g
     id="g64"
     clip-path="url(#clipPath68)"><g
       id="g70"
       transform="translate(267.1081,82.815)"><path
         d="m 0,0 c -2.09,1.034 -4.211,1.552 -6.361,1.552 -0.973,0 -1.707,-0.171 -2.204,-0.512 -0.496,-0.342 -0.744,-0.792 -0.744,-1.35 0,-0.869 0.671,-1.49 2.017,-1.862 3.247,-0.869 5.533,-1.909 6.857,-3.119 1.324,-1.21 1.986,-2.757 1.986,-4.639 0,-2.276 -0.786,-4.008 -2.358,-5.198 -1.573,-1.19 -3.941,-1.784 -7.106,-1.784 -1.324,0 -2.747,0.222 -4.267,0.667 -1.52,0.445 -2.736,0.998 -3.647,1.66 l 1.397,4.81 c 1.055,-0.724 2.198,-1.293 3.429,-1.707 1.231,-0.414 2.363,-0.62 3.398,-0.62 1.862,0 2.793,0.672 2.793,2.017 0,0.869 -0.828,1.541 -2.482,2.017 -3.022,0.869 -5.173,1.913 -6.455,3.134 -1.283,1.221 -1.924,2.762 -1.924,4.624 0,2.048 0.786,3.672 2.358,4.872 1.572,1.199 3.786,1.799 6.641,1.799 3.062,0 5.648,-0.517 7.758,-1.551 z"
         style="fill:#12111a;fill-opacity:1;fill-rule:nonzero;stroke:none"
         id="path72"
         inkscape:connector-curvature="0" /></g></g></g><g
   id="g74"
   transform="translate(278.1858,79.2463)"><path
     d="m 0,0 h 0.062 l 5.834,9.62 h 7.138 L 5.896,-1.241 13.344,-13.033 H 6.206 L 0.062,-2.483 H 0 v -10.55 H -6.206 V 9.62 L 0,9.62 Z"
     style="fill:#12111a;fill-opacity:1;fill-rule:nonzero;stroke:none"
     id="path76"
     inkscape:connector-curvature="0" /></g><g
   id="g78"
   transform="translate(300.0017,70.5574)"><path
     d="m 0,0 -1.024,-4.344 h -6.454 l 7.447,22.653 H 6.485 L 13.933,-4.344 H 7.354 L 6.299,0 Z m 4.468,20.171 h -4.965 l 3.103,5.585 H 9.434 Z M 1.117,4.655 H 5.213 L 3.196,13.034 H 3.134 Z"
     style="fill:#12111a;fill-opacity:1;fill-rule:nonzero;stroke:none"
     id="path80"
     inkscape:connector-curvature="0" /></g><g
   id="g82"><g
     id="g84"
     clip-path="url(#clipPath88)"><g
       id="g90"
       transform="translate(174.2009,52.1851)"><path
         d="m 0,0 c -2.09,1.034 -4.21,1.552 -6.362,1.552 -0.973,0 -1.706,-0.171 -2.203,-0.512 -0.496,-0.342 -0.744,-0.792 -0.744,-1.35 0,-0.869 0.671,-1.49 2.016,-1.862 3.248,-0.869 5.534,-1.909 6.859,-3.119 1.323,-1.21 1.985,-2.757 1.985,-4.639 0,-2.276 -0.786,-4.009 -2.358,-5.198 -1.573,-1.19 -3.941,-1.784 -7.106,-1.784 -1.325,0 -2.747,0.222 -4.267,0.667 -1.521,0.445 -2.736,0.998 -3.646,1.66 l 1.396,4.81 c 1.055,-0.725 2.198,-1.293 3.429,-1.707 1.231,-0.414 2.363,-0.621 3.398,-0.621 1.862,0 2.793,0.673 2.793,2.018 0,0.869 -0.828,1.54 -2.483,2.017 -3.02,0.869 -5.172,1.913 -6.454,3.134 -1.283,1.22 -1.924,2.762 -1.924,4.624 0,2.048 0.786,3.672 2.358,4.871 1.572,1.2 3.786,1.8 6.641,1.8 3.062,0 5.648,-0.516 7.758,-1.551 z"
         style="fill:#12111a;fill-opacity:1;fill-rule:nonzero;stroke:none"
         id="path92"
         inkscape:connector-curvature="0" /></g></g></g><g
   id="g94"
   transform="translate(196.295,58.2363)"><path
     d="m 0,0 v -5.12 h -6.144 v -17.533 h -6.331 V -5.12 h -6.144 V 0 Z"
     style="fill:#12111a;fill-opacity:1;fill-rule:nonzero;stroke:none"
     id="path96"
     inkscape:connector-curvature="0" /></g><g
   id="g98"><g
     id="g100"
     clip-path="url(#clipPath104)"><g
       id="g106"
       transform="translate(205.6666,43.4965)"><path
         d="m 0,0 v -7.913 h -6.051 v 22.498 c 2.689,0.31 5.378,0.465 8.068,0.465 6.206,0 9.31,-2.327 9.31,-6.982 0,-1.304 -0.404,-2.514 -1.211,-3.631 C 9.309,3.32 8.265,2.524 6.982,2.048 V 1.986 C 7.602,1.634 8.119,1.184 8.533,0.636 8.947,0.088 9.34,-0.693 9.713,-1.707 l 2.234,-6.206 H 5.585 L 3.662,-2.017 C 3.434,-1.294 3.145,-0.776 2.793,-0.466 2.441,-0.155 1.976,0 1.396,0 Z m 0,4.499 h 1.707 c 1.055,0 1.887,0.264 2.498,0.792 0.61,0.527 0.915,1.246 0.915,2.156 0,1.966 -1.137,2.949 -3.413,2.949 C 1.045,10.396 0.475,10.343 0,10.24 Z"
         style="fill:#12111a;fill-opacity:1;fill-rule:nonzero;stroke:none"
         id="path108"
         inkscape:connector-curvature="0" /></g></g></g><g
   id="g110"
   transform="translate(226.7057,39.9275)"><path
     d="m 0,0 -1.024,-4.344 h -6.454 l 7.447,22.653 H 6.485 L 13.933,-4.344 H 7.354 L 6.299,0 Z M 1.117,4.655 H 5.213 L 3.196,13.034 H 3.134 Z"
     style="fill:#12111a;fill-opacity:1;fill-rule:nonzero;stroke:none"
     id="path112"
     inkscape:connector-curvature="0" /></g><g
   id="g114"
   transform="translate(255.9993,45.8237)"><path
     d="M 0,0 H 0.062 V 12.413 H 6.113 V -10.241 H 0.062 L -6.703,2.172 h -0.062 v -12.413 h -6.051 v 22.654 h 6.051 z"
     style="fill:#12111a;fill-opacity:1;fill-rule:nonzero;stroke:none"
     id="path116"
     inkscape:connector-curvature="0" /></g><g
   id="g118"
   transform="translate(272.136,39.9275)"><path
     d="m 0,0 -1.024,-4.344 h -6.454 l 7.447,22.653 H 6.485 L 13.933,-4.344 H 7.354 L 6.299,0 Z M 1.117,4.655 H 5.213 L 3.196,13.034 H 3.134 Z"
     style="fill:#12111a;fill-opacity:1;fill-rule:nonzero;stroke:none"
     id="path120"
     inkscape:connector-curvature="0" /></g><g
   id="g122"
   transform="translate(341.0536,35.162)"><path
     d="M 0,0 V 58.174"
     style="fill:none;stroke:#12111a;stroke-width:0.67299998;stroke-linecap:butt;stroke-linejoin:miter;stroke-miterlimit:4;stroke-dasharray:none;stroke-opacity:1"
     id="path124"
     inkscape:connector-curvature="0" /></g><text
   transform="scale(1,-1)"
   style="font-variant:normal;font-weight:300;font-stretch:condensed;font-size:15.81229973px;font-family:'Roboto Condensed Light';-inkscape-font-specification:RobotoCondensed-Light;writing-mode:lr-tb;fill:#12111a;fill-opacity:1;fill-rule:nonzero;stroke:none"
   id="text132"
   x="376.46057"
   y="-59.4035"><tspan
     x="376.46057"
     y="-59.4035"
     sodipodi:role="line"
     id="tspan130">pardubice.pirati.cz</tspan></text>

<text
   transform="matrix(1,0,0,-1,83.6116,695.4162)"
   style="font-variant:normal;font-weight:bold;font-stretch:normal;font-size:127.04740143px;font-family:'Bebas Neue Bold';-inkscape-font-specification:BebasNeueBold;writing-mode:lr-tb;fill:#12111a;fill-opacity:1;fill-rule:nonzero;stroke:none"
   id="text200"><tspan
     x="0 41.798595 87.281563 131.23996 180.28026 226.52551 244.94739 294.74997 386.85934"
     y="0"
     sodipodi:role="line"
     id="tspan198">Letos v l</tspan></text>

<text
   transform="matrix(1,0,0,-1,80.5307,526.7667)"
   style="font-variant:normal;font-weight:bold;font-stretch:normal;font-size:199.58520508px;font-family:'Bebas Neue Bold';-inkscape-font-specification:BebasNeueBold;writing-mode:lr-tb;fill:#12111a;fill-opacity:1;fill-rule:nonzero;stroke:none"
   id="text204"><tspan
     x="0 74.245697 110.17103 188.40843 256.04785 321.11264 398.15253"
     y="0"
     sodipodi:role="line"
     id="tspan202">Piráty!</tspan></text>

<text
   transform="scale(1,-1)"
   style="font-variant:normal;font-weight:bold;font-stretch:normal;font-size:57.99959946px;font-family:'Bebas Neue Bold';-inkscape-font-specification:BebasNeueBold;writing-mode:lr-tb;fill:#12111a;fill-opacity:1;fill-rule:nonzero;stroke:none"
   id="text208"
   x="412.97214"
   y="-720.11469"><tspan
     x="412.97214"
     y="-720.11469"
     sodipodi:role="line"
     id="tspan206">2</tspan></text>

<g
   id="g210"><g
     id="g212"
     clip-path="url(#clipPath216)"><g
       id="g218"
       transform="translate(469.2919,740.0016)"><path
         d="m 0,0 c 0,24.934 -20.213,45.147 -45.147,45.147 -24.934,0 -45.148,-20.213 -45.148,-45.147 0,-24.934 20.214,-45.147 45.148,-45.147 C -20.213,-45.147 0,-24.934 0,0 m -14.067,0 c 0,-17.165 -13.915,-31.08 -31.08,-31.08 -17.165,0 -31.08,13.915 -31.08,31.08 0,17.165 13.915,31.08 31.08,31.08 17.165,0 31.08,-13.915 31.08,-31.08"
         style="fill:#12111a;fill-opacity:1;fill-rule:nonzero;stroke:none"
         id="path220"
         inkscape:connector-curvature="0" /></g></g></g><text
   transform="matrix(1,0,0,-1,111.04812,432.3266)"
   style="font-variant:normal;font-weight:bold;font-stretch:normal;font-size:21.95439911px;font-family:'Bebas Neue Bold';-inkscape-font-specification:BebasNeueBold;writing-mode:lr-tb;fill:#12111a;fill-opacity:1;fill-rule:nonzero;stroke:none"
   id="text224"><tspan
     x="0"
     sodipodi:role="line"
     id="tspan222"
     y="0">Otevřenost</tspan></text>

<text
   transform="scale(1.0049879,-0.99503685)"
   style="font-variant:normal;font-weight:300;font-stretch:condensed;font-size:15.04356384px;font-family:'Roboto Condensed Light';-inkscape-font-specification:RobotoCondensed-Light;writing-mode:lr-tb;fill:#12111a;fill-opacity:1;fill-rule:nonzero;stroke:none;stroke-width:0.99503684"
   id="text228"
   x="199.5636"
   y="-434.483"><tspan
     sodipodi:role="line"
     id="tspan226"
     style="stroke-width:0.99503684"
     y="-434.483"
     x="199.5636">- občané mají mít právo rozhodovat o věcech, které</tspan><tspan
     sodipodi:role="line"
     style="stroke-width:0.99503684"
     y="-415.11697"
     x="199.5636"
     id="tspan334" /></text>

<text
   transform="matrix(1,0,0,-0.99009829,87.996,415.3619)"
   style="font-variant:normal;font-weight:300;font-stretch:condensed;font-size:15.11859989px;font-family:'Roboto Condensed Light';-inkscape-font-specification:RobotoCondensed-Light;writing-mode:lr-tb;fill:#12111a;fill-opacity:1;fill-rule:nonzero;stroke:none"
   id="text232"><tspan
     x="0"
     sodipodi:role="line"
     id="tspan230"
     y="0">se jich osobně týkají. Město se musí snažit jít jim naproti a být transparentní. </tspan></text>

<text
   transform="matrix(1,0,0,-0.99009829,87.996,398.3972)"
   style="font-variant:normal;font-weight:300;font-stretch:condensed;font-size:15.11859989px;font-family:'Roboto Condensed Light';-inkscape-font-specification:RobotoCondensed-Light;writing-mode:lr-tb;fill:#12111a;fill-opacity:1;fill-rule:nonzero;stroke:none"
   id="text236"><tspan
     sodipodi:role="line"
     x="0"
     y="0"
     id="tspan4040">Aktivní zapojení občanů do chodu města umožní dělat kvalitnější rozhodnutí.</tspan></text>

<text
   transform="matrix(1,0,0,-0.99009829,87.996,381.4324)"
   style="font-variant:normal;font-weight:300;font-stretch:condensed;font-size:15.11859989px;font-family:'Roboto Condensed Light';-inkscape-font-specification:RobotoCondensed-Light;writing-mode:lr-tb;fill:#12111a;fill-opacity:1;fill-rule:nonzero;stroke:none"
   id="text240"><tspan
     sodipodi:role="line"
     id="tspan238"
     x="0"
     y="0">a omezit korupci a plýtvání</tspan></text>

<text
   transform="matrix(1,0,0,-1,111.04812,350.3238)"
   style="font-variant:normal;font-weight:bold;font-stretch:normal;font-size:21.95439911px;font-family:'Bebas Neue Bold';-inkscape-font-specification:BebasNeueBold;writing-mode:lr-tb;fill:#12111a;fill-opacity:1;fill-rule:nonzero;stroke:none"
   id="text244"><tspan
     sodipodi:role="line"
     id="tspan242"
     x="0"
     y="0">Otevřenost</tspan></text>

<text
   transform="scale(1.0148902,-0.98532822)"
   style="font-variant:normal;font-weight:300;font-stretch:condensed;font-size:15.19179058px;font-family:'Roboto Condensed Light';-inkscape-font-specification:RobotoCondensed-Light;writing-mode:lr-tb;fill:#12111a;fill-opacity:1;fill-rule:nonzero;stroke:none;stroke-width:0.9853282"
   id="text248"
   x="197.60815"
   y="-355.54019"><tspan
     sodipodi:role="line"
     id="tspan246"
     x="197.60815"
     y="-355.54019"
     style="stroke-width:0.9853282">- občané mají mít právo rozhodovat o věcech, které</tspan><tspan
     sodipodi:role="line"
     x="197.60815"
     y="-335.98334"
     id="tspan4044"
     style="stroke-width:0.9853282" /></text>

<text
   transform="matrix(1,0,0,-0.97087171,87.996,333.3591)"
   style="font-variant:normal;font-weight:300;font-stretch:condensed;font-size:15.41800022px;font-family:'Roboto Condensed Light';-inkscape-font-specification:RobotoCondensed-Light;writing-mode:lr-tb;fill:#12111a;fill-opacity:1;fill-rule:nonzero;stroke:none"
   id="text252"><tspan
     sodipodi:role="line"
     id="tspan250"
     x="0"
     y="0">se jich osobně týkají. Město se musí snažit jít jim naproti a být transparentní. </tspan></text>

<text
   transform="matrix(1,0,0,-0.97087171,87.996,316.3943)"
   style="font-variant:normal;font-weight:300;font-stretch:condensed;font-size:15.41800022px;font-family:'Roboto Condensed Light';-inkscape-font-specification:RobotoCondensed-Light;writing-mode:lr-tb;fill:#12111a;fill-opacity:1;fill-rule:nonzero;stroke:none"
   id="text256"><tspan
     sodipodi:role="line"
     id="tspan254"
     x="0"
     y="0">Aktivní zapojení občanů do chodu města umožní dělat kvalitnější rozhodnutí.</tspan></text>

<text
   transform="matrix(1,0,0,-0.97087171,87.996,299.4296)"
   style="font-variant:normal;font-weight:300;font-stretch:condensed;font-size:15.41800022px;font-family:'Roboto Condensed Light';-inkscape-font-specification:RobotoCondensed-Light;writing-mode:lr-tb;fill:#12111a;fill-opacity:1;fill-rule:nonzero;stroke:none"
   id="text260"><tspan
     sodipodi:role="line"
     id="tspan258"
     x="0"
     y="0">a omezit korupci a plýtvání</tspan></text>

<text
   transform="matrix(1,0,0,-1,111.04812,268.321)"
   style="font-variant:normal;font-weight:bold;font-stretch:normal;font-size:21.95439911px;font-family:'Bebas Neue Bold';-inkscape-font-specification:BebasNeueBold;writing-mode:lr-tb;fill:#12111a;fill-opacity:1;fill-rule:nonzero;stroke:none"
   id="text264"><tspan
     sodipodi:role="line"
     id="tspan262"
     x="0"
     y="0">Otevřenost</tspan></text>

<text
   transform="scale(1.0049879,-0.99503683)"
   style="font-variant:normal;font-weight:300;font-stretch:condensed;font-size:15.04356384px;font-family:'Roboto Condensed Light';-inkscape-font-specification:RobotoCondensed-Light;writing-mode:lr-tb;fill:#12111a;fill-opacity:1;fill-rule:nonzero;stroke:none;stroke-width:0.99503684"
   id="text268"
   x="199.5638"
   y="-269.65936"><tspan
     sodipodi:role="line"
     id="tspan266"
     x="199.5638"
     y="-269.65936"
     style="stroke-width:0.99503684">- občané mají mít právo rozhodovat o věcech, které</tspan><tspan
     sodipodi:role="line"
     x="199.5638"
     y="-250.29332"
     id="tspan4050"
     style="stroke-width:0.99503684" /></text>

<text
   transform="matrix(1,0,0,-0.99009829,87.996,251.3563)"
   style="font-variant:normal;font-weight:300;font-stretch:condensed;font-size:15.11859989px;font-family:'Roboto Condensed Light';-inkscape-font-specification:RobotoCondensed-Light;writing-mode:lr-tb;fill:#12111a;fill-opacity:1;fill-rule:nonzero;stroke:none"
   id="text272"><tspan
     sodipodi:role="line"
     id="tspan270"
     x="0"
     y="0">se jich osobně týkají. Město se musí snažit jít jim naproti a být transparentní. </tspan></text>

<text
   transform="matrix(1,0,0,-0.99009829,87.996,234.3915)"
   style="font-variant:normal;font-weight:300;font-stretch:condensed;font-size:15.11859989px;font-family:'Roboto Condensed Light';-inkscape-font-specification:RobotoCondensed-Light;writing-mode:lr-tb;fill:#12111a;fill-opacity:1;fill-rule:nonzero;stroke:none"
   id="text276"><tspan
     sodipodi:role="line"
     id="tspan274"
     x="0"
     y="0">Aktivní zapojení občanů do chodu města umožní dělat kvalitnější rozhodnutí.</tspan></text>

<text
   transform="matrix(1,0,0,-0.99009829,87.996,217.4268)"
   style="font-variant:normal;font-weight:300;font-stretch:condensed;font-size:15.11859989px;font-family:'Roboto Condensed Light';-inkscape-font-specification:RobotoCondensed-Light;writing-mode:lr-tb;fill:#12111a;fill-opacity:1;fill-rule:nonzero;stroke:none"
   id="text280"><tspan
     sodipodi:role="line"
     id="tspan278"
     x="0"
     y="0">a omezit korupci a plýtvání</tspan></text>

<text
   transform="matrix(1,0,0,-1,111.04812,186.3182)"
   style="font-variant:normal;font-weight:bold;font-stretch:normal;font-size:21.95439911px;font-family:'Bebas Neue Bold';-inkscape-font-specification:BebasNeueBold;writing-mode:lr-tb;fill:#12111a;fill-opacity:1;fill-rule:nonzero;stroke:none"
   id="text284"><tspan
     sodipodi:role="line"
     id="tspan282"
     x="0"
     y="0">Otevřenost</tspan></text>

<text
   transform="scale(0.99498707,-1.0050382)"
   style="font-variant:normal;font-weight:300;font-stretch:condensed;font-size:14.89386177px;font-family:'Roboto Condensed Light';-inkscape-font-specification:RobotoCondensed-Light;writing-mode:lr-tb;fill:#12111a;fill-opacity:1;fill-rule:nonzero;stroke:none;stroke-width:0.99498707"
   id="text288"
   x="201.57834"
   y="-185.3842"><tspan
     sodipodi:role="line"
     id="tspan286"
     x="201.57834"
     y="-185.3842"
     style="stroke-width:0.99498707">- občané mají mít právo rozhodovat o věcech, které</tspan><tspan
     sodipodi:role="line"
     x="201.57834"
     y="-166.21088"
     id="tspan4062"
     style="stroke-width:0.99498707" /></text>

<text
   transform="matrix(0.98999927,0,0,-1,87.996,169.3535)"
   style="font-variant:normal;font-weight:300;font-stretch:condensed;font-size:14.96889973px;font-family:'Roboto Condensed Light';-inkscape-font-specification:RobotoCondensed-Light;writing-mode:lr-tb;fill:#12111a;fill-opacity:1;fill-rule:nonzero;stroke:none"
   id="text292"><tspan
     sodipodi:role="line"
     id="tspan290"
     x="0"
     y="0">se jich osobně týkají. Město se musí snažit jít jim naproti a být transparentní. </tspan></text>

<text
   transform="matrix(0.98999927,0,0,-1,87.996,152.3887)"
   style="font-variant:normal;font-weight:300;font-stretch:condensed;font-size:14.96889973px;font-family:'Roboto Condensed Light';-inkscape-font-specification:RobotoCondensed-Light;writing-mode:lr-tb;fill:#12111a;fill-opacity:1;fill-rule:nonzero;stroke:none"
   id="text296"><tspan
     sodipodi:role="line"
     id="tspan294"
     x="0"
     y="0">Aktivní zapojení občanů do chodu města umožní dělat kvalitnější rozhodnutí.</tspan></text>

<text
   transform="matrix(0.98999927,0,0,-1,87.996,135.424)"
   style="font-variant:normal;font-weight:300;font-stretch:condensed;font-size:14.96889973px;font-family:'Roboto Condensed Light';-inkscape-font-specification:RobotoCondensed-Light;writing-mode:lr-tb;fill:#12111a;fill-opacity:1;fill-rule:nonzero;stroke:none"
   id="text300"><tspan
     sodipodi:role="line"
     id="tspan298"
     x="0"
     y="0">a omezit korupci a plýtvání</tspan></text>

<text
   transform="matrix(1,0,0,-1,87.996,462.1313)"
   style="font-variant:normal;font-weight:normal;font-stretch:normal;font-size:52.89009857px;font-family:'Bebas Neue Book';-inkscape-font-specification:BebasNeueBook;writing-mode:lr-tb;fill:#231f20;fill-opacity:1;fill-rule:nonzero;stroke:none"
   id="text304"><tspan
     x="0 19.886677 40.831158 61.511185 81.609421 105.19841 126.24867 146.66425 160.57434 179.66766 206.90607 225.9994"
     y="0"
     sodipodi:role="line"
     id="tspan302"
     style="-inkscape-font-specification:'Bebas Neue Book, Normal';font-family:'Bebas Neue Book';font-weight:normal;font-style:normal;font-stretch:normal;font-variant:normal;font-size:43.00000107px;text-anchor:start;text-align:start;writing-mode:lr;font-variant-ligatures:normal;font-variant-caps:normal;font-variant-numeric:normal;font-feature-settings:normal">Prosazujeme:</tspan></text>

<g
   id="g306"><g
     id="g308"
     clip-path="url(#clipPath312)"><text
   transform="matrix(0,1,1,0,583.4645,14.1438)"
   style="font-variant:normal;font-weight:300;font-stretch:condensed;font-size:4.98960018px;font-family:'Roboto Condensed Light';-inkscape-font-specification:RobotoCondensed-Light;writing-mode:lr-tb;fill:#12111a;fill-opacity:1;fill-rule:nonzero;stroke:none"
   id="text316"><tspan
     x="0 2.3950081 4.9945898 7.6789942 10.240156 12.570299 15.169881 16.866344 19.398567 20.695864 21.948252 23.320393 26.259268 27.556562 29.216602 31.816185 33.51265 34.809944 36.01244 37.384579 39.779587 42.429062 45.128437 46.776501 49.437954 51.803024 53.100323 54.796783 57.329006 58.626305 59.878693 61.250832 64.234612 66.919022 70.237099 72.836685 75.35144 77.715515 80.247734 82.004074 84.47892 85.851059 88.325897 89.767891 91.225853 92.667847 95.367226"
     y="0"
     sodipodi:role="line"
     id="tspan314">zadavatel: Piráti, zhotovitel: AdHackers s.r.o.</tspan></text>

</g></g><g
   id="g318"
   transform="translate(92.2415,433.6066)"><path
     d="m 0,0 6.391,6.391 -6.477,6.478"
     style="fill:none;stroke:#231f20;stroke-width:4.42199993;stroke-linecap:butt;stroke-linejoin:miter;stroke-miterlimit:4;stroke-dasharray:none;stroke-opacity:1"
     id="path320"
     inkscape:connector-curvature="0" /></g><g
   id="g322"
   transform="translate(92.2415,351.6256)"><path
     d="m 0,0 6.391,6.391 -6.477,6.478"
     style="fill:none;stroke:#231f20;stroke-width:4.42199993;stroke-linecap:butt;stroke-linejoin:miter;stroke-miterlimit:4;stroke-dasharray:none;stroke-opacity:1"
     id="path324"
     inkscape:connector-curvature="0" /></g><g
   id="g326"
   transform="translate(92.2415,269.6447)"><path
     d="m 0,0 6.391,6.391 -6.477,6.478"
     style="fill:none;stroke:#231f20;stroke-width:4.42199993;stroke-linecap:butt;stroke-linejoin:miter;stroke-miterlimit:4;stroke-dasharray:none;stroke-opacity:1"
     id="path328"
     inkscape:connector-curvature="0" /></g><g
   id="g330"
   transform="translate(92.2415,187.6637)"><path
     d="m 0,0 6.391,6.391 -6.477,6.478"
     style="fill:none;stroke:#231f20;stroke-width:4.42199993;stroke-linecap:butt;stroke-linejoin:miter;stroke-miterlimit:4;stroke-dasharray:none;stroke-opacity:1"
     id="path332"
     inkscape:connector-curvature="0" /></g><text
   xml:space="preserve"
   style="font-style:normal;font-weight:normal;font-size:30px;line-height:1.25;font-family:sans-serif;letter-spacing:0px;word-spacing:0px;fill:#000000;fill-opacity:1;stroke:none;stroke-width:0.75"
   x="133.0345"
   y="-295.35645"
   id="text4048"
   transform="scale(1,-1)"><tspan
     sodipodi:role="line"
     id="tspan4046"
     x="133.0345"
     y="-267.98654"
     style="stroke-width:0.75" /></text>

</g></svg>