<?xml version="1.0" encoding="UTF-8" standalone="no"?>
<!-- Created with Inkscape (http://www.inkscape.org/) -->

<svg
   xmlns:dc="http://purl.org/dc/elements/1.1/"
   xmlns:cc="http://creativecommons.org/ns#"
   xmlns:rdf="http://www.w3.org/1999/02/22-rdf-syntax-ns#"
   xmlns:svg="http://www.w3.org/2000/svg"
   xmlns="http://www.w3.org/2000/svg"
   xmlns:sodipodi="http://sodipodi.sourceforge.net/DTD/sodipodi-0.dtd"
   xmlns:inkscape="http://www.inkscape.org/namespaces/inkscape"
   width="2160"
   height="2160"
   viewBox="0 0 571.49999 571.50002"
   version="1.1"
   id="svg8"
   inkscape:version="0.92.3 (2405546, 2018-03-11)"
   sodipodi:docname="vote-teaser.svg"
   inkscape:export-filename="/Users/xaralis/Desktop/vote-teaser.png"
   inkscape:export-xdpi="96"
   inkscape:export-ydpi="96">
  <defs
     id="defs2">
    <clipPath
       id="clipPath26"
       clipPathUnits="userSpaceOnUse">
      <path
         inkscape:connector-curvature="0"
         id="path24"
         d="M 0,0 H 595.276 V 841.89 H 0 Z" />
    </clipPath>
    <clipPath
       id="clipPath48"
       clipPathUnits="userSpaceOnUse">
      <path
         inkscape:connector-curvature="0"
         id="path46"
         d="M 0,0 H 595.276 V 841.89 H 0 Z" />
    </clipPath>
    <clipPath
       id="clipPath68"
       clipPathUnits="userSpaceOnUse">
      <path
         inkscape:connector-curvature="0"
         id="path66"
         d="M 0,0 H 595.276 V 841.89 H 0 Z" />
    </clipPath>
    <clipPath
       id="clipPath88"
       clipPathUnits="userSpaceOnUse">
      <path
         inkscape:connector-curvature="0"
         id="path86"
         d="M 0,0 H 595.276 V 841.89 H 0 Z" />
    </clipPath>
    <clipPath
       id="clipPath104"
       clipPathUnits="userSpaceOnUse">
      <path
         inkscape:connector-curvature="0"
         id="path102"
         d="M 0,0 H 595.276 V 841.89 H 0 Z" />
    </clipPath>
  </defs>
  <sodipodi:namedview
     id="base"
     pagecolor="#ffffff"
     bordercolor="#666666"
     borderopacity="1.0"
     inkscape:pageopacity="0.0"
     inkscape:pageshadow="2"
     inkscape:zoom="0.175"
     inkscape:cx="1062.5849"
     inkscape:cy="849.24556"
     inkscape:document-units="px"
     inkscape:current-layer="layer1"
     showgrid="false"
     units="px"
     showguides="false"
     inkscape:guide-bbox="true"
     inkscape:snap-nodes="false"
     inkscape:window-width="1260"
     inkscape:window-height="787"
     inkscape:window-x="0"
     inkscape:window-y="0"
     inkscape:window-maximized="0">
    <sodipodi:guide
       position="26.458334,0"
       orientation="1,0"
       id="guide1906"
       inkscape:locked="false"
       inkscape:label=""
       inkscape:color="rgb(0,0,255)" />
    <sodipodi:guide
       position="0,545.04167"
       orientation="0,1"
       id="guide1908"
       inkscape:locked="false"
       inkscape:label=""
       inkscape:color="rgb(0,0,255)" />
    <sodipodi:guide
       position="545.04167,0"
       orientation="1,0"
       id="guide1910"
       inkscape:locked="false"
       inkscape:label=""
       inkscape:color="rgb(0,0,255)" />
    <sodipodi:guide
       position="0,26.458334"
       orientation="0,1"
       id="guide1912"
       inkscape:locked="false"
       inkscape:label=""
       inkscape:color="rgb(0,0,255)" />
    <sodipodi:guide
       position="238.93895,71.093697"
       orientation="0,1"
       id="guide1957"
       inkscape:locked="false" />
    <sodipodi:guide
       position="289.72016,184.95052"
       orientation="0,1"
       id="guide1991"
       inkscape:locked="false" />
  </sodipodi:namedview>
  <metadata
     id="metadata5">
    <rdf:RDF>
      <cc:Work
         rdf:about="">
        <dc:format>image/svg+xml</dc:format>
        <dc:type
           rdf:resource="http://purl.org/dc/dcmitype/StillImage" />
        <dc:title></dc:title>
      </cc:Work>
    </rdf:RDF>
  </metadata>
  <g
     inkscape:groupmode="layer"
     id="layer2"
     inkscape:label="bg">
    <rect
       style="fill:#ffffff;fill-opacity:1;stroke:#000000;stroke-width:1.0583334;stroke-linecap:square;stroke-linejoin:miter;stroke-miterlimit:4;stroke-dasharray:none;stroke-opacity:1"
       id="rect2013"
       width="571.5"
       height="571.5"
       x="1.5119048"
       y="3.0154095e-07" />
  </g>
  <g
     inkscape:label="Layer 1"
     inkscape:groupmode="layer"
     id="layer1"
     transform="translate(0,274.50002)">
    <g
       transform="matrix(0.23055551,0,0,-0.23055551,13.780062,297.97285)"
       id="g5462">
      <g
         id="g20"
         transform="matrix(3.0423019,0,0,3.0423019,-203.31309,20.013258)">
        <g
           id="g22"
           clip-path="url(#clipPath26)">
          <g
             id="g28"
             transform="translate(135.222,83.3927)">
            <path
               d="m 0,0 c -5.603,5.608 -13.06,8.701 -20.993,8.701 -7.923,0 -15.381,-3.093 -21.002,-8.701 -5.603,-5.608 -8.696,-13.065 -8.696,-20.997 0,-7.943 3.093,-15.4 8.696,-20.998 5.621,-5.608 13.079,-8.692 21.002,-8.692 7.933,0 15.39,3.084 20.993,8.692 5.622,5.598 8.706,13.055 8.706,20.998 C 8.706,-13.065 5.622,-5.608 0,0 m -20.993,-47.869 c -14.821,0 -26.871,12.051 -26.871,26.872 0,14.815 12.05,26.87 26.871,26.87 14.816,0 26.881,-12.055 26.881,-26.87 0,-14.821 -12.065,-26.872 -26.881,-26.872"
               style="fill:#12111a;fill-opacity:1;fill-rule:nonzero;stroke:none"
               id="path30"
               inkscape:connector-curvature="0" />
          </g>
          <g
             id="g32"
             transform="translate(105.2816,80.0626)">
            <path
               d="m 0,0 v 4.156 h -2.6 v -4.801 c -1.755,-0.541 -2.78,-1.101 -2.609,-1.447 0.579,0.161 1.508,0.232 2.609,0.166 v -24.998 c -2.647,-5.18 1.167,-13.108 1.167,-13.108 0,0 -2.87,8.512 3.511,12.535 5.864,3.691 26.088,1.959 26.012,13.369 C 28,2.04 9.346,1.945 0,0 M 8.345,-15.675 C 7.439,-19.983 2.742,-22.222 0,-24.086 v 21.761 c 4.673,-1.119 10.167,-4.711 8.345,-13.35"
               style="fill:#12111a;fill-opacity:1;fill-rule:nonzero;stroke:none"
               id="path34"
               inkscape:connector-curvature="0" />
          </g>
          <g
             id="g36"
             transform="translate(165.2014,73.2885)">
            <path
               d="m 0,0 v -7.075 h -6.051 v 22.498 c 2.151,0.31 4.427,0.465 6.827,0.465 7.033,0 10.551,-2.534 10.551,-7.603 0,-2.751 -0.792,-4.836 -2.375,-6.252 C 7.37,0.615 5.058,-0.093 2.017,-0.093 1.21,-0.093 0.538,-0.062 0,0 M 0,4.499 C 0.413,4.437 0.879,4.406 1.397,4.406 c 1.344,0 2.378,0.311 3.103,0.931 0.724,0.621 1.086,1.5 1.086,2.638 0,2.172 -1.397,3.258 -4.189,3.258 -0.456,0 -0.921,-0.052 -1.397,-0.155 z"
               style="fill:#12111a;fill-opacity:1;fill-rule:nonzero;stroke:none"
               id="path38"
               inkscape:connector-curvature="0" />
          </g>
        </g>
      </g>
      <path
         d="m 342.4211,290.37045 h 20.76979 V 221.45318 H 342.4211 Z"
         style="fill:#12111a;fill-opacity:1;fill-rule:nonzero;stroke:none;stroke-width:3.04230165"
         id="path40"
         inkscape:connector-curvature="0" />
      <g
         id="g42"
         transform="matrix(3.0423019,0,0,3.0423019,-203.31309,20.013258)">
        <g
           id="g44"
           clip-path="url(#clipPath48)">
          <g
             id="g50"
             transform="translate(196.6664,74.1261)">
            <path
               d="m 0,0 v -7.913 h -6.051 v 22.498 c 2.689,0.31 5.378,0.465 8.068,0.465 6.206,0 9.31,-2.327 9.31,-6.982 0,-1.303 -0.404,-2.513 -1.211,-3.63 C 9.309,3.321 8.265,2.524 6.982,2.048 V 1.986 C 7.602,1.634 8.119,1.184 8.533,0.636 8.947,0.088 9.34,-0.693 9.713,-1.707 l 2.234,-6.206 H 5.585 L 3.662,-2.017 C 3.434,-1.293 3.145,-0.776 2.793,-0.466 2.441,-0.155 1.976,0 1.396,0 Z m 0,4.5 h 1.707 c 1.055,0 1.887,0.264 2.498,0.791 0.61,0.528 0.915,1.246 0.915,2.157 0,1.965 -1.137,2.948 -3.413,2.948 C 1.045,10.396 0.475,10.344 0,10.24 Z"
               style="fill:#12111a;fill-opacity:1;fill-rule:nonzero;stroke:none"
               id="path52"
               inkscape:connector-curvature="0" />
          </g>
        </g>
      </g>
      <g
         id="g54"
         transform="matrix(3.0423019,0,0,3.0423019,458.06963,234.67016)">
        <path
           d="m 0,0 -1.024,-4.344 h -6.454 l 7.447,22.653 H 6.485 L 13.933,-4.344 H 7.354 L 6.299,0 Z m 4.468,20.171 h -4.965 l 3.103,5.585 H 9.433 Z M 1.117,4.655 H 5.213 L 3.196,13.034 H 3.134 Z"
           style="fill:#12111a;fill-opacity:1;fill-rule:nonzero;stroke:none"
           id="path56"
           inkscape:connector-curvature="0" />
      </g>
      <g
         id="g58"
         transform="matrix(3.0423019,0,0,3.0423019,555.77893,290.37136)">
        <path
           d="m 0,0 v -5.12 h -6.144 v -17.533 h -6.331 V -5.12 h -6.144 V 0 Z"
           style="fill:#12111a;fill-opacity:1;fill-rule:nonzero;stroke:none"
           id="path60"
           inkscape:connector-curvature="0" />
      </g>
      <g
         id="g62"
         transform="matrix(3.0423019,0,0,3.0423019,-203.31309,20.013258)">
        <g
           id="g64"
           clip-path="url(#clipPath68)">
          <g
             id="g70"
             transform="translate(267.1081,82.815)">
            <path
               d="m 0,0 c -2.09,1.034 -4.211,1.552 -6.361,1.552 -0.973,0 -1.707,-0.171 -2.204,-0.512 -0.496,-0.342 -0.744,-0.792 -0.744,-1.35 0,-0.869 0.671,-1.49 2.017,-1.862 3.247,-0.869 5.533,-1.909 6.857,-3.119 1.324,-1.21 1.986,-2.757 1.986,-4.639 0,-2.276 -0.786,-4.008 -2.358,-5.198 -1.573,-1.19 -3.941,-1.784 -7.106,-1.784 -1.324,0 -2.747,0.222 -4.267,0.667 -1.52,0.445 -2.736,0.998 -3.647,1.66 l 1.397,4.81 c 1.055,-0.724 2.198,-1.293 3.429,-1.707 1.231,-0.414 2.363,-0.62 3.398,-0.62 1.862,0 2.793,0.672 2.793,2.017 0,0.869 -0.828,1.541 -2.482,2.017 -3.022,0.869 -5.173,1.913 -6.455,3.134 -1.283,1.221 -1.924,2.762 -1.924,4.624 0,2.048 0.786,3.672 2.358,4.872 1.572,1.199 3.786,1.799 6.641,1.799 3.062,0 5.648,-0.517 7.758,-1.551 z"
               style="fill:#12111a;fill-opacity:1;fill-rule:nonzero;stroke:none"
               id="path72"
               inkscape:connector-curvature="0" />
          </g>
        </g>
      </g>
      <g
         id="g74"
         transform="matrix(3.0423019,0,0,3.0423019,643.01207,261.10443)">
        <path
           d="m 0,0 h 0.062 l 5.834,9.62 h 7.138 L 5.896,-1.241 13.344,-13.033 H 6.206 L 0.062,-2.483 H 0 v -10.55 H -6.206 V 9.62 H 0 Z"
           style="fill:#12111a;fill-opacity:1;fill-rule:nonzero;stroke:none"
           id="path76"
           inkscape:connector-curvature="0" />
      </g>
      <g
         id="g78"
         transform="matrix(3.0423019,0,0,3.0423019,709.38262,234.67016)">
        <path
           d="m 0,0 -1.024,-4.344 h -6.454 l 7.447,22.653 H 6.485 L 13.933,-4.344 H 7.354 L 6.299,0 Z m 4.468,20.171 h -4.965 l 3.103,5.585 H 9.434 Z M 1.117,4.655 H 5.213 L 3.196,13.034 H 3.134 Z"
           style="fill:#12111a;fill-opacity:1;fill-rule:nonzero;stroke:none"
           id="path80"
           inkscape:connector-curvature="0" />
      </g>
      <g
         id="g82"
         transform="matrix(3.0423019,0,0,3.0423019,-203.31309,20.013258)">
        <g
           id="g84"
           clip-path="url(#clipPath88)">
          <g
             id="g90"
             transform="translate(174.2009,52.1851)">
            <path
               d="m 0,0 c -2.09,1.034 -4.21,1.552 -6.362,1.552 -0.973,0 -1.706,-0.171 -2.203,-0.512 -0.496,-0.342 -0.744,-0.792 -0.744,-1.35 0,-0.869 0.671,-1.49 2.016,-1.862 3.248,-0.869 5.534,-1.909 6.859,-3.119 1.323,-1.21 1.985,-2.757 1.985,-4.639 0,-2.276 -0.786,-4.009 -2.358,-5.198 -1.573,-1.19 -3.941,-1.784 -7.106,-1.784 -1.325,0 -2.747,0.222 -4.267,0.667 -1.521,0.445 -2.736,0.998 -3.646,1.66 l 1.396,4.81 c 1.055,-0.725 2.198,-1.293 3.429,-1.707 1.231,-0.414 2.363,-0.621 3.398,-0.621 1.862,0 2.793,0.673 2.793,2.018 0,0.869 -0.828,1.54 -2.483,2.017 -3.02,0.869 -5.172,1.913 -6.454,3.134 -1.283,1.22 -1.924,2.762 -1.924,4.624 0,2.048 0.786,3.672 2.358,4.871 1.572,1.2 3.786,1.8 6.641,1.8 3.062,0 5.648,-0.516 7.758,-1.551 z"
               style="fill:#12111a;fill-opacity:1;fill-rule:nonzero;stroke:none"
               id="path92"
               inkscape:connector-curvature="0" />
          </g>
        </g>
      </g>
      <g
         id="g94"
         transform="matrix(3.0423019,0,0,3.0423019,393.87555,197.18566)">
        <path
           d="m 0,0 v -5.12 h -6.144 v -17.533 h -6.331 V -5.12 h -6.144 V 0 Z"
           style="fill:#12111a;fill-opacity:1;fill-rule:nonzero;stroke:none"
           id="path96"
           inkscape:connector-curvature="0" />
      </g>
      <g
         id="g98"
         transform="matrix(3.0423019,0,0,3.0423019,-203.31309,20.013258)">
        <g
           id="g100"
           clip-path="url(#clipPath104)">
          <g
             id="g106"
             transform="translate(205.6666,43.4965)">
            <path
               d="m 0,0 v -7.913 h -6.051 v 22.498 c 2.689,0.31 5.378,0.465 8.068,0.465 6.206,0 9.31,-2.327 9.31,-6.982 0,-1.304 -0.404,-2.514 -1.211,-3.631 C 9.309,3.32 8.265,2.524 6.982,2.048 V 1.986 C 7.602,1.634 8.119,1.184 8.533,0.636 8.947,0.088 9.34,-0.693 9.713,-1.707 l 2.234,-6.206 H 5.585 L 3.662,-2.017 C 3.434,-1.294 3.145,-0.776 2.793,-0.466 2.441,-0.155 1.976,0 1.396,0 Z m 0,4.499 h 1.707 c 1.055,0 1.887,0.264 2.498,0.792 0.61,0.527 0.915,1.246 0.915,2.156 0,1.966 -1.137,2.949 -3.413,2.949 C 1.045,10.396 0.475,10.343 0,10.24 Z"
               style="fill:#12111a;fill-opacity:1;fill-rule:nonzero;stroke:none"
               id="path108"
               inkscape:connector-curvature="0" />
          </g>
        </g>
      </g>
      <g
         id="g110"
         transform="matrix(3.0423019,0,0,3.0423019,486.39406,141.48476)">
        <path
           d="m 0,0 -1.024,-4.344 h -6.454 l 7.447,22.653 H 6.485 L 13.933,-4.344 H 7.354 L 6.299,0 Z M 1.117,4.655 H 5.213 L 3.196,13.034 H 3.134 Z"
           style="fill:#12111a;fill-opacity:1;fill-rule:nonzero;stroke:none"
           id="path112"
           inkscape:connector-curvature="0" />
      </g>
      <g
         id="g114"
         transform="matrix(3.0423019,0,0,3.0423019,575.51405,159.42278)">
        <path
           d="M 0,0 H 0.062 V 12.413 H 6.113 V -10.241 H 0.062 L -6.703,2.172 h -0.062 v -12.413 h -6.051 v 22.654 h 6.051 z"
           style="fill:#12111a;fill-opacity:1;fill-rule:nonzero;stroke:none"
           id="path116"
           inkscape:connector-curvature="0" />
      </g>
      <g
         id="g118"
         transform="matrix(3.0423019,0,0,3.0423019,624.60675,141.48476)">
        <path
           d="m 0,0 -1.024,-4.344 h -6.454 l 7.447,22.653 H 6.485 L 13.933,-4.344 H 7.354 L 6.299,0 Z M 1.117,4.655 H 5.213 L 3.196,13.034 H 3.134 Z"
           style="fill:#12111a;fill-opacity:1;fill-rule:nonzero;stroke:none"
           id="path120"
           inkscape:connector-curvature="0" />
      </g>
    </g>
    <g
       id="g1935"
       transform="translate(0,1.2069423e-5)">
      <text
         style="font-variant:normal;font-weight:bold;font-stretch:normal;font-size:147.01425171px;font-family:'Bebas Neue Bold';-inkscape-font-specification:BebasNeueBold;writing-mode:lr-tb;fill:#12111a;fill-opacity:1;fill-rule:nonzero;stroke:none;stroke-width:1.15716088"
         id="text200"
         x="20.587925"
         y="-124.40144">
        <tspan
           x="20.587925 68.955719 121.58682 172.45403 229.20192"
           y="-124.40144"
           sodipodi:role="line"
           id="tspan198"
           style="stroke-width:1.15716088">Letos</tspan>
      </text>
      <text
         y="-122.99796"
         x="309.57617"
         id="text1888"
         style="font-variant:normal;font-weight:bold;font-stretch:normal;font-size:147.01425171px;font-family:'Bebas Neue Bold';-inkscape-font-specification:BebasNeueBold;writing-mode:lr-tb;fill:#12111a;fill-opacity:1;fill-rule:nonzero;stroke:none;stroke-width:1.15716088">
        <tspan
           style="stroke-width:1.15716088"
           id="tspan1886"
           sodipodi:role="line"
           y="-122.99796"
           x="309.57617">přijď</tspan>
      </text>
    </g>
    <g
       id="g1929"
       transform="matrix(1.061962,0,0,1.061962,-1.6427917,43.326471)">
      <text
         style="font-variant:normal;font-weight:bold;font-stretch:normal;font-size:162.197052px;font-family:'Bebas Neue Bold';-inkscape-font-specification:BebasNeueBold;writing-mode:lr-tb;fill:#12111a;fill-opacity:1;fill-rule:nonzero;stroke:none;stroke-width:1.27666593"
         id="text1892"
         x="20.025"
         y="14.177374">
        <tspan
           x="20.025"
           y="14.177374"
           sodipodi:role="line"
           id="tspan1890"
           style="stroke-width:1.27666593">K</tspan>
      </text>
      <text
         y="14.177374"
         x="117.1048"
         id="text1896"
         style="font-variant:normal;font-weight:bold;font-stretch:normal;font-size:162.197052px;font-family:'Bebas Neue Bold';-inkscape-font-specification:BebasNeueBold;writing-mode:lr-tb;fill:#12111a;fill-opacity:1;fill-rule:nonzero;stroke:none;stroke-width:1.27666593">
        <tspan
           style="stroke-width:1.27666593"
           id="tspan1894"
           sodipodi:role="line"
           y="14.177374"
           x="117.1048">Volbám</tspan>
      </text>
    </g>
    <g
       id="g2027"
       transform="translate(0,-2.8116727e-6)">
      <text
         transform="scale(1.0777496,0.9278593)"
         style="font-variant:normal;font-weight:bold;font-stretch:normal;font-size:114.53341675px;font-family:'Bebas Neue Bold';-inkscape-font-specification:BebasNeueBold;writing-mode:lr-tb;fill:#12111a;fill-opacity:1;fill-rule:nonzero;stroke:none;stroke-width:0.57385725"
         id="text204"
         x="259.90091"
         y="201.55573">
        <tspan
           x="259.90091 302.50729 323.12332 368.02045 406.83582 444.17368 488.38367"
           y="201.55573"
           sodipodi:role="line"
           id="tspan202"
           style="stroke-width:0.57385725">Piráty!</tspan>
      </text>
      <g
         transform="matrix(1.1234637,0,0,1.1234637,-2.9309837,-23.311751)"
         id="g1989">
        <g
           transform="matrix(0.25518787,0,0,-0.24753896,-82.70995,536.93127)"
           id="g1698">
          <g
             transform="translate(-309.75199,-23.827076)"
             id="g1708">
            <text
               y="-1954.9342"
               x="1211.4067"
               id="text208"
               style="font-variant:normal;font-weight:bold;font-stretch:normal;font-size:174.62466431px;font-family:'Bebas Neue Bold';-inkscape-font-specification:BebasNeueBold;writing-mode:lr-tb;fill:#12111a;fill-opacity:1;fill-rule:nonzero;stroke:none;stroke-width:3.01079059"
               transform="matrix(1,0,0,-1,-11.913538,-448.74324)">
              <tspan
                 style="stroke-width:3.01079059"
                 id="tspan206"
                 sodipodi:role="line"
                 y="-1954.9342"
                 x="1211.4067">2</tspan>
            </text>
            <path
               inkscape:connector-curvature="0"
               id="path220"
               style="fill:#12111a;fill-opacity:1;fill-rule:nonzero;stroke:none;stroke-width:3.01079082"
               d="m 1369.0605,1566.0663 c 0,75.0711 -60.8571,135.9282 -135.9282,135.9282 -75.071,0 -135.9312,-60.8571 -135.9312,-135.9282 0,-75.0711 60.8602,-135.9282 135.9312,-135.9282 75.0711,0 135.9282,60.8571 135.9282,135.9282 m -42.3528,0 c 0,-51.6802 -41.8952,-93.5754 -93.5754,-93.5754 -51.6802,0 -93.5754,41.8952 -93.5754,93.5754 0,51.6802 41.8952,93.5754 93.5754,93.5754 51.6802,0 93.5754,-41.8952 93.5754,-93.5754" />
            <text
               transform="scale(1,-1)"
               y="-1438.7074"
               x="212.38464"
               id="text200-2"
               style="font-variant:normal;font-weight:bold;font-stretch:normal;font-size:382.51312256px;font-family:'Bebas Neue Bold';-inkscape-font-specification:BebasNeueBold;writing-mode:lr-tb;fill:#12111a;fill-opacity:1;fill-rule:nonzero;stroke:none;stroke-width:3.01079035">
              <tspan
                 style="stroke-width:3.01079035"
                 id="tspan198-6"
                 sodipodi:role="line"
                 x="949.87 1099.8151 1377.1372">v l</tspan>
            </text>
          </g>
        </g>
        <text
           style="font-variant:normal;font-weight:bold;font-stretch:normal;font-size:94.00453949px;font-family:'Bebas Neue Bold';-inkscape-font-specification:BebasNeueBold;writing-mode:lr-tb;fill:#12111a;fill-opacity:1;fill-rule:nonzero;stroke:none;stroke-width:0.73991716"
           id="text1900"
           x="22.347086"
           y="188.12366"
           transform="scale(1.0153324,0.98489916)">
          <tspan
             x="22.347086"
             y="188.12366"
             sodipodi:role="line"
             id="tspan1898"
             style="stroke-width:0.73991716">A</tspan>
        </text>
      </g>
    </g>
    <text
       xml:space="preserve"
       style="font-style:normal;font-variant:normal;font-weight:bold;font-stretch:normal;font-size:62.69169998px;line-height:1.25;font-family:'Bebas Neue';-inkscape-font-specification:'Bebas Neue Bold';letter-spacing:0px;word-spacing:0px;fill:#000000;fill-opacity:1;stroke:none;stroke-width:1.56729245"
       x="233.15677"
       y="270.43738"
       id="text1955"><tspan
         sodipodi:role="line"
         id="tspan1953"
         x="233.15677"
         y="270.43738"
         style="font-style:normal;font-variant:normal;font-weight:normal;font-stretch:normal;font-size:62.69177628px;font-family:'Bebas Neue Bold';-inkscape-font-specification:'Bebas Neue Bold, Normal';font-variant-ligatures:normal;font-variant-caps:normal;font-variant-numeric:normal;font-feature-settings:normal;text-align:start;writing-mode:lr-tb;text-anchor:start;stroke-width:1.56729245">již dnes a zítra</tspan></text>
  </g>
</svg>
